<?xml version="1.0" encoding="utf-8"?>
<!-- Generator: Adobe Illustrator 22.0.0, SVG Export Plug-In . SVG Version: 6.00 Build 0)  -->
<svg version="1.1" id="Layer_1" xmlns="http://www.w3.org/2000/svg" xmlns:xlink="http://www.w3.org/1999/xlink" x="0px" y="0px"
	 viewBox="0 0 453.8 439.7" style="enable-background:new 0 0 453.8 439.7;" xml:space="preserve">
<style type="text/css">
	.st0{fill:#FFFFFF;}
	.st1{fill:#E0E0E0;}
	.st2{opacity:0.3;}
	.st3{clip-path:url(#SVGID_2_);fill:#E0E0E0;}
	.st4{clip-path:url(#SVGID_4_);fill:#E0E0E0;}
	.st5{clip-path:url(#SVGID_6_);fill:#E0E0E0;}
	.st6{fill-rule:evenodd;clip-rule:evenodd;fill:#E0E0E0;}
	.st7{clip-path:url(#SVGID_8_);fill:#EBEBEB;}
	.st8{clip-path:url(#SVGID_10_);fill:#EBEBEB;}
	.st9{clip-path:url(#SVGID_12_);fill:#EBEBEB;}
	.st10{fill:#263238;}
	.st11{fill:#EBEBEB;}
	.st12{fill:#E8505B;}
	.st13{fill:#7B848A;}
	.st14{fill:#E6203B;}
	.st15{fill:#455A64;}
	.st16{fill:#FAFAFA;}
	.st17{fill:#FFBE9D;}
	.st18{opacity:0.6;}
	.st19{clip-path:url(#SVGID_14_);fill:#FFFFFF;}
	.st20{clip-path:url(#SVGID_16_);fill:#FFFFFF;}
	.st21{clip-path:url(#SVGID_18_);fill:#FFFFFF;}
	.st22{clip-path:url(#SVGID_20_);fill:#FFFFFF;}
	.st23{clip-path:url(#SVGID_22_);}
	.st24{fill:#EB996E;}
	.st25{fill:none;}
	.st26{opacity:0.21;}
</style>
<rect x="49.7" y="83.5" class="st0" width="125.2" height="83.8"/>
<path class="st1" d="M174.9,167.3c0,0,0-0.5,0-1.5c0-1,0-2.5,0-4.4c0-3.9,0-9.6,0-16.9c0-14.6-0.1-35.5-0.1-61l0.2,0.2
	c-34.5,0-78,0-125.2,0h0l0.2-0.2c0,29.9,0,58.3,0,83.8l-0.2-0.2c36.9,0,68.1,0.1,90.2,0.1c11,0,19.8,0,25.8,0.1c3,0,5.3,0,6.9,0
	c0.8,0,1.4,0,1.8,0C174.7,167.3,174.9,167.3,174.9,167.3s-0.2,0-0.6,0c-0.4,0-1,0-1.7,0c-1.6,0-3.8,0-6.8,0c-6,0-14.7,0-25.7,0.1
	c-22.1,0-53.4,0.1-90.3,0.1h-0.2v-0.2c0-25.6,0-54,0-83.8v-0.2h0.2h0c47.2,0,90.7,0,125.2,0h0.2l0,0.2c0,25.6-0.1,46.5-0.1,61.1
	c0,7.3,0,13,0,16.8c0,1.9,0,3.4,0,4.4C174.9,166.8,174.9,167.3,174.9,167.3"/>
<path class="st1" d="M49.7,91c0-0.1,28-0.2,62.6-0.2c34.6,0,62.6,0.1,62.6,0.2c0,0.1-28,0.2-62.6,0.2C77.7,91.2,49.7,91.1,49.7,91"
	/>
<g class="st2">
	<g>
		<defs>
			<rect id="SVGID_1_" x="52.6" y="86.2" width="2" height="2"/>
		</defs>
		<clipPath id="SVGID_2_">
			<use xlink:href="#SVGID_1_"  style="overflow:visible;"/>
		</clipPath>
		<path class="st3" d="M54.6,87.2c0,0.6-0.4,1-1,1c-0.6,0-1-0.4-1-1c0-0.6,0.4-1,1-1C54.2,86.2,54.6,86.7,54.6,87.2"/>
	</g>
</g>
<g class="st2">
	<g>
		<defs>
			<rect id="SVGID_3_" x="56" y="86.2" width="2" height="2"/>
		</defs>
		<clipPath id="SVGID_4_">
			<use xlink:href="#SVGID_3_"  style="overflow:visible;"/>
		</clipPath>
		<path class="st4" d="M58.1,87.2c0,0.6-0.5,1-1,1s-1-0.4-1-1c0-0.6,0.4-1,1-1S58.1,86.7,58.1,87.2"/>
	</g>
</g>
<g class="st2">
	<g>
		<defs>
			<rect id="SVGID_5_" x="59.4" y="86.2" width="2" height="2"/>
		</defs>
		<clipPath id="SVGID_6_">
			<use xlink:href="#SVGID_5_"  style="overflow:visible;"/>
		</clipPath>
		<path class="st5" d="M61.4,87.2c0,0.6-0.4,1-1,1c-0.6,0-1-0.4-1-1c0-0.6,0.4-1,1-1C61,86.2,61.4,86.7,61.4,87.2"/>
	</g>
</g>
<rect x="60.4" y="99.7" class="st1" width="33.4" height="33.4"/>
<path class="st1" d="M157.7,109.2c0,0.1-13,0.2-29.1,0.2c-16.1,0-29.1-0.1-29.1-0.2c0-0.1,13-0.2,29.1-0.2
	C144.7,108.9,157.7,109,157.7,109.2"/>
<path class="st1" d="M157.7,115.4c0,0.1-13,0.2-29.1,0.2c-16.1,0-29.1-0.1-29.1-0.2c0-0.1,13-0.2,29.1-0.2
	C144.7,115.2,157.7,115.3,157.7,115.4"/>
<path class="st1" d="M157.7,121.6c0,0.1-13,0.2-29.1,0.2c-16.1,0-29.1-0.1-29.1-0.2c0-0.1,13-0.2,29.1-0.2
	C144.7,121.4,157.7,121.5,157.7,121.6"/>
<path class="st1" d="M133.9,127.8c0,0-0.5,0.1-1.4,0.1c-0.9,0-2.2,0-3.7,0.1c-3.1,0-7.4,0.1-12.2,0.1c-4.7,0-9,0-12.2-0.1
	c-1.5,0-2.7-0.1-3.7-0.1c-0.9,0-1.4-0.1-1.4-0.1c0,0,0.5-0.1,1.4-0.1c0.9,0,2.2,0,3.7-0.1c3.1,0,7.4-0.1,12.2-0.1
	c4.7,0,9,0,12.2,0.1c1.5,0,2.7,0.1,3.7,0.1C133.4,127.7,133.9,127.8,133.9,127.8"/>
<rect x="62.5" y="144.4" class="st1" width="15.7" height="15.7"/>
<rect x="91" y="144.4" class="st1" width="15.7" height="15.7"/>
<rect x="119.5" y="144.4" class="st1" width="15.7" height="15.7"/>
<rect x="147.9" y="144.4" class="st1" width="15.7" height="15.7"/>
<path class="st1" d="M403.1,104.7c0,0-0.1,0.6-0.7,1.4c-0.6,0.8-1.7,2-3.4,2.5c-0.9,0.3-1.9,0.4-3,0.2c-1.1-0.2-2.2-0.7-3.1-1.5
	c-0.5-0.4-0.9-0.9-1.2-1.4c-0.3-0.5-0.6-1.1-0.8-1.8c-0.4-1.3-0.3-2.7,0.2-4.1c0.5-1.3,1.4-2.4,2.6-3.1c0.6-0.4,1.2-0.6,1.8-0.8
	c0.6-0.2,1.2-0.2,1.9-0.2c1.2,0,2.4,0.4,3.3,1c0.9,0.6,1.6,1.3,2.1,2.1c1,1.6,1,3.2,0.9,4.2C403.3,104.2,403.1,104.7,403.1,104.7
	c0,0,0.2-0.5,0.3-1.5c0.1-1,0-2.5-0.9-4c-0.5-0.7-1.1-1.5-2-2c-0.9-0.5-2-0.9-3.1-0.9c-0.6,0-1.2,0.1-1.8,0.2
	c-0.6,0.2-1.2,0.4-1.7,0.8c-1.1,0.7-1.9,1.7-2.4,3c-0.5,1.3-0.5,2.6-0.2,3.8c0.2,0.6,0.4,1.2,0.7,1.7c0.3,0.5,0.7,1,1.2,1.3
	c0.9,0.8,1.9,1.2,2.9,1.4c1,0.2,2,0.1,2.9-0.1c1.7-0.5,2.8-1.6,3.4-2.4C402.8,105.2,403,104.7,403.1,104.7"/>
<path class="st1" d="M409,110.8c0,0,0.1,0,0.2,0c0.2,0,0.4,0,0.7,0.1c0.6,0.1,1.5,0.2,2.7,0.4l-0.1,0c0.5-1.4,1.2-3.3,2.1-5.5l0,0.1
	c-0.9-0.6-1.9-1.3-3-2l-0.1,0l0-0.1c0.1-1.2,0.1-2.5-0.1-3.8l0-0.1l0.1,0c0.9-0.7,1.9-1.4,2.9-2.1l0,0.2c-0.8-1.7-1.6-3.5-2.4-5.4
	l0.2,0.1c-1.1,0.2-2.3,0.5-3.5,0.7l-0.1,0l-0.1-0.1c-0.7-0.9-1.7-1.8-2.8-2.6l-0.1-0.1l0-0.1c0.2-1.1,0.3-2.3,0.5-3.5l0.1,0.2
	c-1.7-0.7-3.6-1.4-5.5-2.1l0.2-0.1c-0.6,0.9-1.3,1.9-2,3l-0.1,0.1l-0.1,0c-1.2-0.1-2.5-0.1-3.8,0.1l-0.1,0l-0.1-0.1
	c-0.7-0.9-1.4-1.9-2.1-2.9l0.2,0.1c-1.7,0.8-3.5,1.6-5.4,2.4l0.1-0.2c0.2,1.1,0.5,2.3,0.7,3.5l0,0.1l-0.1,0.1
	c-0.9,0.8-1.9,1.7-2.6,2.8l0,0l0,0c-0.1,0,0.2-0.1-0.2,0.1l0,0l0,0l0,0l0,0l-0.1,0l-0.1,0l-0.2,0l-0.4-0.1l-0.9-0.1
	c-0.6-0.1-1.2-0.2-1.8-0.3l0.2-0.1c-0.7,1.9-1.4,3.7-2.1,5.5l-0.1-0.2c1,0.7,2,1.3,3,2l0.1,0.1l0,0.1c-0.1,1.3-0.1,2.6,0.1,3.8
	l0,0.1l-0.1,0.1c-1,0.7-1.9,1.4-2.9,2.1l0.1-0.2c0.8,1.8,1.6,3.7,2.4,5.4l-0.2-0.1c1.2-0.2,2.4-0.5,3.5-0.7l0.1,0l0.1,0.1
	c0.8,1,1.8,1.9,2.8,2.6l0.1,0.1l0,0.1c-0.2,1.2-0.4,2.4-0.5,3.5l-0.1-0.2c1.9,0.8,3.8,1.5,5.5,2.1l-0.2,0.1c0.7-1,1.4-2,2-3l0-0.1
	l0.1,0c1.4,0.2,2.6,0.1,3.8-0.1l0.1,0l0,0.1c0.8,1,1.5,2,2.1,2.9l-0.1,0c2.1-0.9,3.9-1.7,5.4-2.4l0,0.1c-0.3-1.4-0.5-2.6-0.7-3.5
	l0,0l0,0c1-0.8,1.7-1.5,2.1-2c0.2-0.2,0.3-0.4,0.5-0.6C409,110.8,409,110.7,409,110.8c0,0,0,0.1-0.1,0.2c-0.1,0.1-0.2,0.3-0.4,0.6
	c-0.4,0.5-1,1.2-2.1,2.1l0-0.1c0.2,1,0.4,2.1,0.7,3.5l0,0.1l-0.1,0c-1.5,0.7-3.3,1.5-5.4,2.4l-0.1,0l-0.1-0.1
	c-0.7-0.9-1.4-1.8-2.1-2.9l0.1,0c-1.2,0.2-2.5,0.3-3.9,0.1l0.1-0.1c-0.6,0.9-1.3,1.9-2,3l-0.1,0.1l-0.1,0c-1.7-0.7-3.6-1.4-5.5-2.1
	l-0.1,0l0-0.1c0.2-1.1,0.3-2.3,0.5-3.5l0.1,0.2c-1-0.7-2-1.6-2.8-2.7l0.2,0.1c-1.1,0.2-2.3,0.5-3.5,0.7l-0.1,0l-0.1-0.1
	c-0.8-1.8-1.6-3.6-2.4-5.4l-0.1-0.1l0.1-0.1c0.9-0.7,1.9-1.4,2.9-2.1l-0.1,0.2c-0.2-1.3-0.2-2.6-0.1-3.9l0.1,0.2c-1-0.7-2-1.3-3-2
	l-0.1-0.1l0.1-0.1c0.7-1.8,1.4-3.7,2.1-5.5l0.1-0.1l0.1,0c0.6,0.1,1.2,0.2,1.8,0.3l0.9,0.1l0.4,0.1l0.2,0l0.1,0l0.1,0l0,0l0,0l0,0h0
	c-0.3,0.1-0.1,0-0.2,0.1l0,0l0,0c0.8-1.1,1.7-2.1,2.7-2.8l-0.1,0.2c-0.2-1.2-0.5-2.4-0.7-3.5l0-0.1l0.1-0.1c1.9-0.8,3.7-1.6,5.4-2.4
	l0.1-0.1l0.1,0.1c0.7,1,1.5,2,2.1,2.9l-0.2-0.1c1.3-0.2,2.7-0.2,3.9-0.1l-0.2,0.1c0.7-1,1.4-2,2-3l0.1-0.1l0.1,0
	c1.9,0.7,3.8,1.5,5.5,2.1l0.1,0l0,0.1c-0.2,1.2-0.4,2.4-0.5,3.5l-0.1-0.1c1.1,0.8,2.1,1.7,2.8,2.7l-0.1-0.1c1.2-0.2,2.4-0.5,3.5-0.7
	l0.1,0l0,0.1c0.8,1.9,1.6,3.7,2.4,5.4l0,0.1l-0.1,0.1c-1,0.7-2,1.5-2.9,2.1l0-0.1c0.2,1.4,0.2,2.7,0.1,3.9l0-0.1
	c1.1,0.7,2.1,1.4,3,2l0.1,0l0,0.1c-0.9,2.2-1.6,4.1-2.2,5.5l0,0l0,0c-1.1-0.2-2-0.3-2.6-0.4c-0.3,0-0.5-0.1-0.7-0.1
	C409.1,110.8,409,110.8,409,110.8"/>
<path class="st6" d="M440.5,93.9c-0.6,0.9-1.4,1.7-2.2,2.3l0.6,2.9l-4.5,2l-1.8-2.4c-1,0.2-2.1,0.2-3.2,0.1l-1.7,2.5l-4.6-1.8
	l0.4-2.9c-0.9-0.6-1.7-1.4-2.3-2.2l-2.9,0.6l-2-4.5l2.4-1.8c-0.2-1-0.2-2.1-0.1-3.2l-2.5-1.7l1.8-4.6l2.9,0.4
	c0.6-0.9,1.4-1.7,2.2-2.3l-0.6-2.9l4.5-2l1.8,2.4c1-0.2,2.1-0.2,3.2-0.1l1.7-2.5l4.6,1.8l-0.4,2.9c0.9,0.6,1.7,1.4,2.3,2.2l2.9-0.6
	l2,4.5l-2.4,1.8c0.2,1,0.2,2.1,0.1,3.2l2.5,1.7l-1.8,4.6L440.5,93.9z M435.5,88.9c1-2.7-0.3-5.8-3-6.8c-2.7-1-5.8,0.3-6.8,3
	c-1,2.7,0.3,5.8,3,6.8C431.4,93,434.5,91.6,435.5,88.9"/>
<path class="st6" d="M421.2,66.6c-1,1.4-2.2,2.6-3.5,3.6l0.9,4.6l-7,3.1l-2.8-3.7c-1.6,0.3-3.3,0.3-5,0.1l-2.6,3.9l-7.2-2.8l0.7-4.6
	c-1.4-1-2.6-2.2-3.6-3.5l-4.6,0.9l-3.1-7l3.7-2.8c-0.3-1.6-0.3-3.3-0.1-5l-3.9-2.6l2.8-7.2l4.6,0.7c1-1.4,2.2-2.6,3.5-3.6l-0.9-4.6
	l7-3.1l2.8,3.7c1.6-0.3,3.3-0.3,5-0.1l2.6-3.9l7.2,2.8l-0.7,4.6c1.4,1,2.6,2.2,3.6,3.5l4.6-0.9l3.1,7l-3.7,2.8
	c0.3,1.6,0.3,3.3,0.1,5l3.9,2.6l-2.8,7.2L421.2,66.6z M413.4,58.7c1.6-4.3-0.5-9-4.7-10.7c-4.3-1.6-9,0.5-10.7,4.7
	c-1.6,4.3,0.5,9,4.7,10.7C407,65.1,411.7,63,413.4,58.7"/>
<path class="st1" d="M368.3,41.5c0,0,0-0.3,0-0.8c0-0.5,0-1.3,0-2.2c0-1.9,0-4.8,0-8.4c0-7.2,0-17.5-0.1-30l0.1,0.1
	c-14.5,0-32,0-50.8,0h0l0.2-0.2c0,15,0,29.1,0,41.4l-0.2-0.2c15.1,0,27.7,0.1,36.7,0.1c4.5,0,8,0,10.4,0c1.2,0,2.1,0,2.8,0
	c0.3,0,0.5,0,0.7,0C368.2,41.5,368.3,41.5,368.3,41.5s-0.1,0-0.2,0c-0.2,0-0.4,0-0.7,0c-0.6,0-1.5,0-2.7,0c-2.4,0-5.9,0-10.4,0
	c-8.9,0-21.6,0-36.8,0.1l-0.2,0v-0.2c0-12.3,0-26.4,0-41.4V0h0.2h0c18.8,0,36.2,0,50.8,0h0.1v0.1c0,12.5-0.1,22.8-0.1,30.1
	c0,3.6,0,6.4,0,8.4c0,1,0,1.7,0,2.2C368.3,41.3,368.3,41.5,368.3,41.5"/>
<path class="st1" d="M368.7,6.3c0,0.1-11.5,0.2-25.6,0.2c-14.1,0-25.6-0.1-25.6-0.2c0-0.1,11.5-0.2,25.6-0.2
	C357.2,6.1,368.7,6.2,368.7,6.3"/>
<path class="st1" d="M321.7,3.3c0,0.4-0.3,0.7-0.7,0.7c-0.4,0-0.7-0.3-0.7-0.7c0-0.4,0.3-0.7,0.7-0.7C321.4,2.6,321.7,2.9,321.7,3.3
	"/>
<path class="st1" d="M324.2,3.3c0,0.4-0.3,0.7-0.7,0.7s-0.7-0.3-0.7-0.7c0-0.4,0.3-0.7,0.7-0.7S324.2,2.9,324.2,3.3"/>
<path class="st1" d="M326.7,3.3c0,0.4-0.3,0.7-0.7,0.7c-0.4,0-0.7-0.3-0.7-0.7c0-0.4,0.3-0.7,0.7-0.7C326.4,2.6,326.7,2.9,326.7,3.3
	"/>
<rect x="152.8" y="20.1" class="st0" width="117.4" height="47.7"/>
<path class="st1" d="M270.2,67.8c0,0,0-0.3,0-0.9c0-0.6,0-1.4,0-2.5c0-2.2,0-5.4,0-9.5c0-8.2,0-20.1-0.1-34.9l0.1,0.1
	c-29.9,0-71.4,0-117.4,0.1h0l0.2-0.2c0,16.7,0,32.8,0,47.7l-0.2-0.2c34,0,63.3,0.1,84.2,0.1c10.4,0,18.7,0,24.4,0.1c2.8,0,5,0,6.5,0
	c0.7,0,1.3,0,1.7,0C270,67.8,270.2,67.8,270.2,67.8s-0.2,0-0.6,0c-0.4,0-0.9,0-1.7,0c-1.5,0-3.7,0-6.5,0c-5.7,0-14,0-24.4,0
	c-20.9,0-50.2,0-84.3,0.1h-0.2v-0.2c0-14.9,0-31,0-47.7v-0.2h0.2h0c45.9,0,87.5,0,117.4,0.1h0.1l0,0.1c0,14.8-0.1,26.7-0.1,34.9
	c0,4.1,0,7.3,0,9.5c0,1.1,0,1.9,0,2.5C270.2,67.5,270.2,67.8,270.2,67.8"/>
<path class="st1" d="M152.9,26.6c0-0.1,26.2-0.2,58.6-0.2c32.4,0,58.6,0.1,58.6,0.2c0,0.1-26.2,0.2-58.6,0.2
	C179.1,26.7,152.9,26.7,152.9,26.6"/>
<g class="st2">
	<g>
		<defs>
			<rect id="SVGID_7_" x="156.1" y="22.8" width="1.7" height="1.7"/>
		</defs>
		<clipPath id="SVGID_8_">
			<use xlink:href="#SVGID_7_"  style="overflow:visible;"/>
		</clipPath>
		<path class="st7" d="M157.8,23.7c0,0.5-0.4,0.9-0.9,0.9c-0.5,0-0.9-0.4-0.9-0.9c0-0.5,0.4-0.9,0.9-0.9
			C157.4,22.8,157.8,23.2,157.8,23.7"/>
	</g>
</g>
<g class="st2">
	<g>
		<defs>
			<rect id="SVGID_9_" x="159" y="22.8" width="1.7" height="1.7"/>
		</defs>
		<clipPath id="SVGID_10_">
			<use xlink:href="#SVGID_9_"  style="overflow:visible;"/>
		</clipPath>
		<path class="st8" d="M160.7,23.7c0,0.5-0.4,0.9-0.9,0.9c-0.5,0-0.9-0.4-0.9-0.9c0-0.5,0.4-0.9,0.9-0.9
			C160.3,22.8,160.7,23.2,160.7,23.7"/>
	</g>
</g>
<g class="st2">
	<g>
		<defs>
			<rect id="SVGID_11_" x="161.9" y="22.8" width="1.7" height="1.7"/>
		</defs>
		<clipPath id="SVGID_12_">
			<use xlink:href="#SVGID_11_"  style="overflow:visible;"/>
		</clipPath>
		<path class="st9" d="M163.6,23.7c0,0.5-0.4,0.9-0.9,0.9c-0.5,0-0.9-0.4-0.9-0.9c0-0.5,0.4-0.9,0.9-0.9
			C163.2,22.8,163.6,23.2,163.6,23.7"/>
	</g>
</g>
<rect x="162.8" y="34.3" class="st1" width="28.4" height="28.4"/>
<path class="st1" d="M262,41.9c0,0.1-14.6,0.2-32.6,0.2c-18,0-32.6-0.1-32.6-0.2c0-0.1,14.6-0.2,32.6-0.2
	C247.4,41.7,262,41.8,262,41.9"/>
<path class="st1" d="M262,47.7c0,0.1-14.6,0.2-32.6,0.2c-18,0-32.6-0.1-32.6-0.2c0-0.1,14.6-0.2,32.6-0.2
	C247.4,47.5,262,47.6,262,47.7"/>
<path class="st1" d="M238.8,53.5c0,0-0.1,0-0.4,0c-0.3,0-0.7,0-1.2,0c-1.1,0-2.6,0-4.5,0.1c-3.8,0-9.1,0-14.8,0.1
	c-5.8,0-11,0-14.8-0.1c-1.9,0-3.4,0-4.5-0.1c-0.5,0-0.9,0-1.2,0c-0.3,0-0.4,0-0.4,0c0,0,0.1,0,0.4,0c0.3,0,0.7,0,1.2,0
	c1.1,0,2.6,0,4.5-0.1c3.8,0,9.1,0,14.8-0.1c5.8,0,11,0,14.8,0.1c1.9,0,3.4,0,4.5,0.1c0.5,0,0.9,0,1.2,0
	C238.7,53.4,238.8,53.4,238.8,53.5"/>
<path class="st10" d="M453.8,412.2c0,0.1-99.8,0.3-222.9,0.3c-123.1,0-222.9-0.1-222.9-0.3c0-0.1,99.8-0.3,222.9-0.3
	C354,411.9,453.8,412,453.8,412.2"/>
<rect x="276" y="102.5" class="st1" width="140.1" height="114.2"/>
<rect x="266" y="109.8" class="st11" width="140.1" height="114.2"/>
<rect x="252.3" y="117.7" class="st0" width="143.9" height="117.2"/>
<path class="st10" d="M396.2,234.9c0,0,0-0.7,0-2.2c0-1.4,0-3.5,0-6.3c0-5.5,0-13.5-0.1-23.7c0-20.5-0.1-49.7-0.1-85l0.2,0.2
	c-41.2,0-90.6,0-143.9,0h0l0.3-0.3c0,42.4,0,82.4,0,117.2l-0.2-0.2c42.8,0,78.7,0.1,104,0.1c12.6,0,22.6,0,29.4,0.1c3.4,0,6,0,7.8,0
	c0.9,0,1.5,0,2,0C395.9,234.9,396.2,234.9,396.2,234.9s-0.2,0-0.7,0c-0.5,0-1.1,0-2,0c-1.8,0-4.4,0-7.7,0c-6.8,0-16.8,0-29.4,0.1
	c-25.3,0-61.3,0.1-104.1,0.1h-0.2v-0.2c0-34.8,0-74.8,0-117.2v-0.3h0.3h0c53.2,0,102.7,0,143.9,0h0.2v0.2c0,35.4-0.1,64.7-0.1,85.2
	c0,10.2,0,18.2-0.1,23.7c0,2.7,0,4.8,0,6.2C396.2,234.2,396.2,234.9,396.2,234.9"/>
<polygon class="st12" points="268.5,223.5 267,224.1 268.5,224.6 268.5,225.2 266.3,224.4 266.3,223.8 268.5,222.9 "/>
<path class="st10" d="M396.2,127.4c0,0.1-32.1,0.3-71.7,0.3c-39.6,0-71.7-0.1-71.7-0.3c0-0.1,32.1-0.3,71.7-0.3
	C364.1,127.2,396.2,127.3,396.2,127.4"/>
<path class="st10" d="M257.1,122.3c0,0.5-0.4,0.9-0.9,0.9c-0.5,0-0.9-0.4-0.9-0.9c0-0.5,0.4-0.9,0.9-0.9
	C256.7,121.4,257.1,121.8,257.1,122.3"/>
<path class="st10" d="M260.6,122.3c0,0.5-0.4,0.9-0.9,0.9c-0.5,0-0.9-0.4-0.9-0.9c0-0.5,0.4-0.9,0.9-0.9
	C260.2,121.4,260.6,121.8,260.6,122.3"/>
<path class="st10" d="M264.2,122.3c0,0.5-0.4,0.9-0.9,0.9c-0.5,0-0.9-0.4-0.9-0.9c0-0.5,0.4-0.9,0.9-0.9
	C263.8,121.4,264.2,121.8,264.2,122.3"/>
<path class="st1" d="M261.9,235.9c-0.1,0-0.3-24.3-0.3-54.3c0-30,0.1-54.3,0.3-54.3c0.1,0,0.3,24.3,0.3,54.3
	C262.2,211.5,262,235.9,261.9,235.9"/>
<rect x="61.2" y="21.9" class="st13" width="59.3" height="42.2"/>
<path class="st0" d="M120.9,28.1c0,0.1-13.4,0.3-29.9,0.3c-16.5,0-29.9-0.1-29.9-0.3c0-0.1,13.4-0.3,29.9-0.3
	C107.5,27.9,120.9,28,120.9,28.1"/>
<path class="st0" d="M66,25.1c0,0.4-0.4,0.7-0.8,0.7c-0.4,0-0.8-0.3-0.8-0.7c0-0.4,0.4-0.7,0.8-0.7C65.6,24.4,66,24.7,66,25.1"/>
<path class="st0" d="M68.9,25.1c0,0.4-0.4,0.7-0.8,0.7c-0.4,0-0.8-0.3-0.8-0.7c0-0.4,0.4-0.7,0.8-0.7C68.5,24.4,68.9,24.7,68.9,25.1
	"/>
<path class="st0" d="M71.8,25.1c0,0.4-0.4,0.7-0.8,0.7c-0.4,0-0.8-0.3-0.8-0.7c0-0.4,0.4-0.7,0.8-0.7C71.4,24.4,71.8,24.7,71.8,25.1
	"/>
<rect x="383.3" y="183.4" class="st13" width="53.6" height="38.2"/>
<path class="st0" d="M437.3,189.1c0,0.1-12.1,0.2-27,0.2c-14.9,0-27-0.1-27-0.2c0-0.1,12.1-0.2,27-0.2
	C425.2,188.9,437.3,189,437.3,189.1"/>
<path class="st0" d="M387.7,186.3c0,0.4-0.3,0.6-0.7,0.6c-0.4,0-0.7-0.3-0.7-0.6c0-0.3,0.3-0.6,0.7-0.6
	C387.4,185.6,387.7,185.9,387.7,186.3"/>
<path class="st0" d="M390.3,186.3c0,0.4-0.3,0.6-0.7,0.6c-0.4,0-0.7-0.3-0.7-0.6c0-0.3,0.3-0.6,0.7-0.6
	C390,185.6,390.3,185.9,390.3,186.3"/>
<path class="st0" d="M393,186.3c0,0.4-0.3,0.6-0.7,0.6c-0.4,0-0.7-0.3-0.7-0.6c0-0.3,0.3-0.6,0.7-0.6
	C392.6,185.6,393,185.9,393,186.3"/>
<rect x="32.7" y="182.8" class="st1" width="39.5" height="28.1"/>
<path class="st0" d="M72.5,187c0,0.1-8.9,0.1-19.9,0.1c-11,0-19.9-0.1-19.9-0.1c0-0.1,8.9-0.1,19.9-0.1
	C63.6,186.9,72.5,186.9,72.5,187"/>
<path class="st0" d="M35.9,185c0,0.3-0.2,0.5-0.5,0.5c-0.3,0-0.5-0.2-0.5-0.5c0-0.3,0.2-0.5,0.5-0.5C35.7,184.5,35.9,184.7,35.9,185
	"/>
<path class="st0" d="M37.9,185c0,0.3-0.2,0.5-0.5,0.5c-0.3,0-0.5-0.2-0.5-0.5c0-0.3,0.2-0.5,0.5-0.5C37.6,184.5,37.9,184.7,37.9,185
	"/>
<path class="st0" d="M39.8,185c0,0.3-0.2,0.5-0.5,0.5c-0.3,0-0.5-0.2-0.5-0.5c0-0.3,0.2-0.5,0.5-0.5C39.6,184.5,39.8,184.7,39.8,185
	"/>
<path class="st14" d="M325.7,93.6c0,0,0-0.3,0-0.8c0-0.5,0-1.3,0-2.3c0-2,0-4.9,0-8.6c0-7.4,0-18-0.1-31l0.2,0.2
	c-13.5,0-30.8,0-49.5,0.1h0l0.2-0.3c0,15.1,0,29.5,0,42.6l-0.2-0.2c14.5,0,26.9,0.1,35.6,0.1c4.4,0,7.8,0,10.2,0.1
	c1.2,0,2.1,0,2.7,0c0.3,0,0.5,0,0.7,0C325.6,93.6,325.7,93.6,325.7,93.6c0,0-0.1,0-0.2,0c-0.2,0-0.4,0-0.7,0c-0.6,0-1.5,0-2.7,0
	c-2.4,0-5.8,0-10.2,0.1c-8.8,0-21.2,0.1-35.7,0.1H276v-0.2c0-13.1,0-27.4,0-42.6v-0.3h0.2h0c18.7,0,35.9,0,49.5,0.1h0.2l0,0.2
	c0,13-0.1,23.7-0.1,31.1c0,3.7,0,6.5,0,8.5c0,1,0,1.7,0,2.2C325.7,93.4,325.7,93.6,325.7,93.6"/>
<path class="st14" d="M325.5,57.4c0,0.1-11,0.3-24.7,0.3c-13.6,0-24.7-0.1-24.7-0.3c0-0.1,11-0.3,24.7-0.3
	C314.5,57.1,325.5,57.2,325.5,57.4"/>
<path class="st14" d="M281.1,54.3c0,0.4-0.4,0.7-0.8,0.7c-0.4,0-0.8-0.3-0.8-0.7c0-0.4,0.4-0.7,0.8-0.7
	C280.7,53.6,281.1,53.9,281.1,54.3"/>
<path class="st14" d="M284,54.3c0,0.4-0.4,0.7-0.8,0.7c-0.4,0-0.8-0.3-0.8-0.7c0-0.4,0.4-0.7,0.8-0.7C283.7,53.6,284,53.9,284,54.3"
	/>
<path class="st14" d="M287,54.3c0,0.4-0.4,0.7-0.8,0.7s-0.8-0.3-0.8-0.7c0-0.4,0.4-0.7,0.8-0.7S287,53.9,287,54.3"/>
<path class="st15" d="M128.8,239l26.1,88.2c1.2,3.9,4.8,6.6,8.8,6.6l106,0.3c5.6,0,10.1-4.7,9.8-10.3c-0.3-5.2-4.6-9.3-9.8-9.3
	h-40.5l-32.5-90.4H140C132.2,224.1,126.6,231.6,128.8,239"/>
<path class="st10" d="M218.5,321.8c0,0.2-10.8,0.4-24.1,0.4c-13.3,0-24.1-0.2-24.1-0.4c0-0.2,10.8-0.4,24.1-0.4
	C207.7,321.4,218.5,321.6,218.5,321.8"/>
<path class="st10" d="M136.6,226.9c0.2-0.1,7.4,21,16.1,47.2c8.7,26.1,15.6,47.3,15.4,47.4c-0.2,0.1-7.4-21-16.1-47.2
	C143.3,248.2,136.4,226.9,136.6,226.9"/>
<polygon class="st15" points="214.1,412.2 207.6,412 207.6,333.8 214.1,333.8 "/>
<polygon class="st15" points="180.8,411.8 240.9,411.8 213.7,402.4 207.2,402.4 "/>
<path class="st14" d="M165.6,203.8l9.9,49.7l-1.8,37.3l66.9-11.1l-2.6-32.6l-0.1-27l16.4,31.8l12.8-24.7l-23.4-42.3l0,0
	c-4.3-4.4-9.3-7.7-15.3-9.9c-2.9-1.1-6-1.7-9.6-1.8c-7.7,2.4-15.4,2.4-23.2,0c-0.9,0.1-2.2,0.2-3.9,0.4c-0.1,0-0.2,0-0.3,0
	c-14.2,1.7-25,13.5-25.8,27.8L165.6,203.8z"/>
<path class="st14" d="M191.8,173.6c0,0-27.5,0.2-30.9,29.2l-0.5,21.3l23.7-0.2L191.8,173.6z"/>
<path class="st16" d="M257.5,210.9c0,0.2-21.6,0.4-48.3,0.4c-26.7,0-48.3-0.2-48.3-0.4c0-0.2,21.6-0.4,48.3-0.4
	C235.9,210.5,257.5,210.7,257.5,210.9"/>
<path class="st16" d="M257.5,215.5c0,0.2-21.6,0.4-48.3,0.4c-26.7,0-48.3-0.2-48.3-0.4c0-0.2,21.6-0.4,48.3-0.4
	C235.9,215.1,257.5,215.3,257.5,215.5"/>
<path class="st16" d="M255.9,207.1c0,0.2-21.3,0.4-47.5,0.4c-26.2,0-47.5-0.2-47.5-0.4c0-0.2,21.3-0.4,47.5-0.4
	C234.7,206.7,255.9,206.9,255.9,207.1"/>
<path class="st10" d="M237.6,251.9c-0.2,0-0.1-11.8,0.2-26.3c0.3-14.5,0.7-26.3,1-26.3c0.2,0,0.1,11.8-0.2,26.3
	C238.2,240.1,237.8,251.9,237.6,251.9"/>
<path class="st17" d="M228.2,232.8c0,0,13,0.9,15.3,4.4c2.3,3.4,5.9,13.2,4.6,13.3s-2.3-0.7-2.3-0.7l-3.6-6.3c0,0,0.6,6.1-1.6,6.2
	c-2.1,0.1-12.7,2.2-12.7,2.2L228.2,232.8z"/>
<path class="st14" d="M160.5,218.4l0,33.5c0.4,7.8,7.8,13.4,15.4,11.8l52.4-10.8l-0.1-21.5l-45.2,8.7l-0.6-22.7L160.5,218.4z"/>
<path class="st10" d="M190.4,261c0,0,0.2-0.1,0.7-0.2c0.5-0.1,1.2-0.3,2-0.5c1.8-0.4,4.4-0.9,7.7-1.6c6.7-1.4,16.1-3.3,27.3-5.6
	l-0.3,0.3c0-6.7,0-14.2,0-22.1l0.4,0.4c-3,0.6-6.1,1.2-9.2,1.8c-13.2,2.5-25.6,4.9-36,6.9l-0.4,0.1l0-0.4c0.3-10,0.6-18.3,0.8-24.2
	c0.1-2.9,0.2-5.1,0.3-6.7c0-0.7,0.1-1.3,0.1-1.8c0-0.4,0.1-0.6,0.1-0.6c0,0,0,0.2,0,0.6c0,0.5,0,1,0,1.8c0,1.6-0.1,3.9-0.1,6.8
	c-0.1,5.9-0.3,14.2-0.6,24.2l-0.4-0.3c10.4-2,22.8-4.4,36-7c3.2-0.6,6.3-1.2,9.2-1.8l0.4-0.1l0,0.4c0,7.9,0,15.3,0,22.1v0.3
	l-0.3,0.1c-11.2,2.2-20.6,4-27.3,5.3c-3.3,0.6-5.9,1.1-7.7,1.4c-0.9,0.1-1.5,0.3-2.1,0.4C190.6,261,190.4,261,190.4,261"/>
<path class="st10" d="M220.5,173.6c0,0,0.1,0.2,0.2,0.5c0.1,0.3,0.3,0.8,0.4,1.5c0.3,1.3,0.4,3.3-0.2,5.6c-0.6,2.3-2.2,4.9-4.5,7
	c-2.4,2.2-5.8,3.6-9.5,3.6c-3.7,0-7.2-1.5-9.4-3.8c-2.2-2.3-3.2-5.2-3.5-7.6c-0.3-2.4,0.2-4.4,0.7-5.6c0.2-0.6,0.5-1.1,0.7-1.4
	c0.2-0.3,0.3-0.5,0.3-0.4c0.1,0-0.3,0.7-0.7,1.9c-0.4,1.2-0.7,3.1-0.4,5.4c0.3,2.3,1.3,5,3.5,7.2c2.1,2.2,5.4,3.6,8.9,3.6
	c3.5,0,6.8-1.3,9.1-3.4c2.3-2,3.8-4.4,4.5-6.7c0.7-2.2,0.6-4.2,0.5-5.4C220.6,174.3,220.4,173.6,220.5,173.6"/>
<path class="st16" d="M223,254.6c-0.1,0-0.1-1.3,0-3.3c0.1-2,0.2-4.8,0.2-7.9c0-3.1,0-5.9-0.1-7.9c-0.1-2-0.1-3.3,0-3.3
	c0.1,0,0.3,1.2,0.5,3.3c0.2,2,0.3,4.9,0.3,8c0,3.1-0.2,5.9-0.4,8C223.3,253.4,223.1,254.7,223,254.6"/>
<path class="st16" d="M220.3,255.2c-0.1,0-0.1-1.3-0.1-3.3c0-2.3,0.1-5,0.1-7.9c0-2.9,0-5.6,0-7.9c0-2,0-3.3,0.1-3.3
	c0.1,0,0.3,1.2,0.4,3.3c0.1,2,0.2,4.8,0.2,7.9c0,3.1-0.1,5.9-0.3,7.9C220.6,254,220.4,255.2,220.3,255.2"/>
<path class="st12" d="M272.8,388.3l9.9,27.3l14.1,19.3c1,1.4,0.6,3.4-0.8,4.3c-0.8,0.5-1.8,0.6-2.7,0.2
	c-5.7-2.4-26.5-11.1-27.1-13.1c-0.7-2.4-14.1-31.7-14.1-31.7L272.8,388.3z"/>
<g class="st18">
	<g>
		<defs>
			<rect id="SVGID_13_" x="265.4" y="424.5" width="30.5" height="15.2"/>
		</defs>
		<clipPath id="SVGID_14_">
			<use xlink:href="#SVGID_13_"  style="overflow:visible;"/>
		</clipPath>
		<path class="st19" d="M295.9,439.2l-30.5-14.7l0.4,1.1c0.4,1,1.1,1.8,2,2.3c2.5,1.3,9.5,4.9,25.2,11.5
			C294,439.8,295.1,439.7,295.9,439.2"/>
	</g>
</g>
<g class="st18">
	<g>
		<defs>
			<rect id="SVGID_15_" x="265.4" y="413.5" width="3.4" height="3.4"/>
		</defs>
		<clipPath id="SVGID_16_">
			<use xlink:href="#SVGID_15_"  style="overflow:visible;"/>
		</clipPath>
		<path class="st20" d="M267.5,413.6c0.9,0.2,1.5,1.1,1.3,2c-0.2,0.9-1.1,1.5-2,1.3c-0.9-0.2-1.6-1.3-1.4-2.1
			c0.3-0.8,1.4-1.5,2.2-1.1"/>
	</g>
</g>
<path class="st10" d="M285.1,429.8c0.2,0,0.2-1.6,1.6-3c1.3-1.4,2.9-1.6,2.9-1.8c0-0.1-0.4-0.2-1.1,0c-0.7,0.2-1.5,0.6-2.3,1.4
	c-0.7,0.8-1.1,1.7-1.2,2.4C284.9,429.4,285,429.8,285.1,429.8"/>
<path class="st10" d="M288.5,432.7c0.2,0.1,0.7-1.1,1.9-2.1c1.2-1,2.5-1.2,2.5-1.4c0-0.2-1.5-0.2-2.9,0.9
	C288.6,431.1,288.3,432.6,288.5,432.7"/>
<path class="st10" d="M279.7,426.5c0.2,0.1,1-1.8,2.8-3.4c1.8-1.7,3.7-2.3,3.6-2.5c0-0.2-2.2,0.2-4.1,2
	C280.1,424.4,279.6,426.5,279.7,426.5"/>
<path class="st10" d="M276,418.5c0.1,0.1,1.4-1.1,3.3-1.9c1.9-0.9,3.6-1,3.6-1.1c0-0.2-1.8-0.3-3.9,0.6
	C277,416.9,275.9,418.4,276,418.5"/>
<path class="st10" d="M272.9,410.6c0.1,0.1,1.3-1.4,3.4-2.1c2.1-0.8,3.9-0.3,3.9-0.5c0-0.1-0.4-0.3-1.2-0.4c-0.8-0.1-1.9-0.1-3,0.3
	c-1.1,0.4-2,1-2.5,1.6C273,410.1,272.9,410.5,272.9,410.6"/>
<path class="st10" d="M275.7,407c0,0,0-0.4-0.4-1c-0.3-0.6-0.9-1.5-1.9-2.4c-0.5-0.4-1-0.9-1.9-1c-0.4,0-1,0.3-1.2,0.7
	c-0.2,0.5-0.1,1,0,1.4c0.7,1.7,2.8,2.8,4.8,2.3c2-0.5,3.3-2.3,3.5-4.1c0-0.4,0-1-0.4-1.3c-0.4-0.4-1-0.4-1.4-0.1
	c-0.8,0.4-1.1,1.1-1.4,1.6c-0.6,1.1-0.9,2.1-1,2.8c-0.1,0.7-0.1,1.1-0.1,1.1c0.1,0,0.2-1.6,1.5-3.7c0.3-0.5,0.7-1.1,1.3-1.4
	c0.3-0.1,0.6-0.1,0.7,0.1c0.2,0.2,0.3,0.5,0.2,0.9c-0.2,1.5-1.4,3.1-3.1,3.5c-1.7,0.4-3.6-0.5-4.1-1.9c-0.1-0.3-0.2-0.7-0.1-1
	c0.1-0.3,0.3-0.4,0.6-0.4c0.6,0,1.2,0.4,1.7,0.8C275.1,405.5,275.6,407.1,275.7,407"/>
<path class="st12" d="M314.6,381.2l-0.9,22.2c0,0,22.2,8.3,22.5,12.4l-43-0.1l-0.1-34.6L314.6,381.2z"/>
<g class="st18">
	<g>
		<defs>
			<rect id="SVGID_17_" x="299.2" y="401.4" width="3.4" height="3.3"/>
		</defs>
		<clipPath id="SVGID_18_">
			<use xlink:href="#SVGID_17_"  style="overflow:visible;"/>
		</clipPath>
		<path class="st21" d="M300.4,401.5c-0.8,0.2-1.4,1.2-1.2,2c0.2,0.8,1.1,1.4,2,1.2c0.8-0.2,1.6-1.3,1.3-2.1c-0.3-0.8-1.4-1.5-2.2-1
			"/>
	</g>
</g>
<g class="st18">
	<g>
		<defs>
			<rect id="SVGID_19_" x="293.2" y="412.2" width="43.1" height="3.6"/>
		</defs>
		<clipPath id="SVGID_20_">
			<use xlink:href="#SVGID_19_"  style="overflow:visible;"/>
		</clipPath>
		<path class="st22" d="M293.2,415.7l0-3.5l41.4,1.4c0,0,1.9,0.8,1.7,2.2L293.2,415.7z"/>
	</g>
</g>
<path class="st10" d="M314.4,403.2c0,0.2-1.1,0.3-2.1,1c-1.1,0.6-1.6,1.6-1.8,1.5c-0.2,0,0.1-1.3,1.4-2.1
	C313.2,402.7,314.5,403,314.4,403.2"/>
<path class="st10" d="M318.9,405c0,0.2-0.9,0.6-1.6,1.4c-0.7,0.9-0.9,1.8-1.1,1.8c-0.2,0-0.3-1.2,0.6-2.3
	C317.7,404.9,318.9,404.8,318.9,405"/>
<path class="st10" d="M321.5,410.4c-0.2,0-0.5-1,0.1-2.2c0.5-1.2,1.5-1.6,1.6-1.4c0.1,0.2-0.5,0.8-1,1.7
	C321.8,409.5,321.7,410.4,321.5,410.4"/>
<path class="st10" d="M314.1,398.1c-0.1,0.2-1.1-0.1-2.2,0c-1.2,0.1-2.1,0.4-2.2,0.3c-0.1-0.2,0.8-0.9,2.2-1
	C313.2,397.2,314.2,397.9,314.1,398.1"/>
<g class="st2">
	<g>
		<defs>
			<rect id="SVGID_21_" x="293.1" y="385.6" width="21.3" height="4"/>
		</defs>
		<clipPath id="SVGID_22_">
			<use xlink:href="#SVGID_21_"  style="overflow:visible;"/>
		</clipPath>
		<polygon class="st23" points="314.4,385.6 314.3,389.5 293.1,389.3 293.1,385.7 		"/>
	</g>
</g>
<path class="st10" d="M314.2,393.6c0,0.1-0.8,0.2-2.2,0c-0.7-0.1-1.4-0.3-2.3-0.7c-0.4-0.2-0.8-0.4-1.2-0.7
	c-0.2-0.1-0.4-0.3-0.6-0.5c-0.2-0.2-0.4-0.8-0.1-1.1c0.2-0.3,0.6-0.5,0.9-0.5c0.3,0,0.6,0.1,0.8,0.1c0.5,0.1,0.9,0.3,1.3,0.5
	c0.8,0.4,1.5,0.9,2,1.3c1,0.9,1.3,1.7,1.3,1.8c-0.1,0.1-0.6-0.6-1.6-1.4c-0.5-0.4-1.2-0.8-1.9-1.1c-0.4-0.2-0.8-0.3-1.2-0.4
	c-0.5-0.1-0.8-0.1-1,0.1c0,0.1,0,0.1,0,0.2c0.1,0.1,0.3,0.2,0.5,0.4c0.4,0.2,0.8,0.5,1.1,0.7c0.8,0.4,1.5,0.6,2.1,0.8
	C313.3,393.4,314.2,393.5,314.2,393.6"/>
<path class="st10" d="M313.9,393.9c-0.1,0-0.5-0.7-0.6-2.1c0-0.7,0-1.5,0.3-2.4c0.1-0.4,0.3-0.9,0.6-1.3c0.3-0.4,0.6-1,1.4-1.1
	c0.4,0,0.8,0.3,0.9,0.6c0.1,0.3,0.2,0.5,0.2,0.8c0.1,0.5,0.1,1,0,1.5c-0.1,0.9-0.5,1.7-0.9,2.2c-0.8,1.1-1.7,1.4-1.7,1.3
	c-0.1-0.1,0.7-0.5,1.3-1.6c0.3-0.5,0.6-1.2,0.7-2c0-0.4,0-0.8,0-1.2c-0.1-0.5-0.2-0.8-0.4-0.8c-0.2,0-0.6,0.3-0.8,0.7
	c-0.2,0.4-0.4,0.8-0.5,1.2c-0.3,0.8-0.4,1.5-0.4,2.1C313.8,393.1,314,393.9,313.9,393.9"/>
<path class="st10" d="M293.1,274.9c-25.4,2.6-59.1,6.1-59.1,6.1l4.6,41.4c0,0,49.5-13.1,49.2-12c-0.4,1.1,2.3,88.1,2.3,88.1h29.8
	l0.6-98.5C320.6,285.1,307.9,273.4,293.1,274.9"/>
<path class="st10" d="M173.1,291.6v12.8c0,8.7,9.9,18,18.7,18h6.8c5.3,0,13.7-3.9,18-7l2.6-1.9l31.1,96.2c0,0,35.5-6.4,35.5-7.5
	s-24.1-78.8-35.2-114.9c-4.5-14.7-20.3-23.3-34.9-18.3c-0.5,0.2-1,0.4-1.5,0.6C198.3,276.1,173.1,291.6,173.1,291.6"/>
<path class="st15" d="M285.7,402.3c0,0-0.1-0.1-0.2-0.3c-0.1-0.3-0.2-0.6-0.4-1c-0.3-0.9-0.8-2.2-1.4-4c-1.2-3.5-2.8-8.5-4.8-14.8
	c-4-12.5-9.3-29.9-15.1-49.1c-2.9-9.6-5.6-18.8-8.1-27.1c-1.2-4.2-2.4-8.1-3.5-11.8c-0.6-1.9-1.1-3.6-1.6-5.4
	c-0.5-1.7-1-3.4-1.6-4.9c-1.2-3-3.1-5.3-5-7.1c-1.9-1.8-3.7-3.1-5.3-4.1c-1.5-1-2.7-1.8-3.6-2.3c-0.4-0.2-0.7-0.4-0.9-0.6
	c-0.2-0.1-0.3-0.2-0.3-0.2c0,0,0.1,0,0.3,0.2c0.3,0.1,0.6,0.3,1,0.5c0.9,0.5,2.1,1.2,3.6,2.2c1.6,1,3.4,2.3,5.4,4
	c1.9,1.8,3.9,4.1,5.2,7.2c0.7,1.5,1.2,3.2,1.7,4.9c0.5,1.7,1.1,3.5,1.6,5.3c1.1,3.7,2.3,7.7,3.6,11.8c2.5,8.3,5.3,17.5,8.2,27.1
	c5.8,19.2,11,36.5,14.8,49.2c1.9,6.2,3.5,11.3,4.6,14.9c0.5,1.7,1,3.1,1.3,4c0.1,0.4,0.2,0.8,0.3,1.1
	C285.7,402.1,285.7,402.3,285.7,402.3"/>
<path class="st15" d="M293.2,298c0.2,0.1-1.5,2.7-2.9,6.1c-1.4,3.4-2,6.4-2.3,6.4c-0.2,0,0.1-3.1,1.6-6.7
	C291.1,300.2,293.1,297.8,293.2,298"/>
<path class="st15" d="M298.9,302c0.1,0.2-2.5,1.3-5.1,3.4c-2.7,2.1-4.4,4.3-4.6,4.2c-0.2-0.1,1.3-2.6,4.1-4.8
	C296.1,302.6,298.9,301.8,298.9,302"/>
<path class="st15" d="M250.5,409.8c-0.2,0.1-8.6-25.7-18.7-57.5c-10.2-31.8-18.2-57.7-18-57.7c0.2-0.1,8.6,25.7,18.7,57.5
	C242.6,383.9,250.7,409.7,250.5,409.8"/>
<polygon class="st13" points="212.4,259.7 314.1,260.7 333,207.1 259.1,207.6 241.9,255.8 212.4,256.2 "/>
<path class="st0" d="M289.5,238.5c-2.3-0.3-3.8-2.4-3.5-4.7c0.3-2.3,2.4-3.8,4.7-3.5c2.3,0.3,3.8,2.4,3.5,4.7
	C293.8,237.2,291.7,238.8,289.5,238.5"/>
<path class="st10" d="M204.1,114.7c1-3.6,3.6-5.3,7.1-6.5c3.5-1.2,7.6-0.5,10.5,1.7c2,1.5,3.5,3.7,5.8,4.5c3.8,1.3,8.3-1.5,12,0.2
	c2.2,1,3.4,3.7,2.9,6c-0.6,2.3-2.9,4.1-5.3,4c2.5,0.9,3.3,4.5,1.8,6.7c-1.5,2.2-4.5,3.1-7.1,2.6c-2.6-0.5-4.9-2.1-6.9-3.9
	c-2-1.8-3.8-3.8-5.9-5.4c-2.1-1.6-4.7-2.8-7.4-2.7c-3.6,0.2-6.7,2.9-8.3,6.1c-1.6,3.2-2,6.9-2.2,10.5c-0.2,3.6-0.3,7.3-1.3,10.7
	c-0.1,0.4-0.3,0.9-0.7,1c-0.6,0.2-1.1-0.4-1.4-1c-3.3-6.1-5.4-12.8-6.1-19.7c-0.4-4-0.3-7.8,1.9-11.1
	C195.8,115,201.4,112.5,204.1,114.7"/>
<path class="st17" d="M197.1,131.4l-1.8,40.5c-0.3,6.9,0.6,17.1,11.5,17.1c9.5-0.7,12.3-9.6,12.5-16c0.1-3,0.3-5.6,0.3-5.9
	c0,0,10.3-0.5,11.6-10.7c0.6-4.9,1-15.1,1.2-24.4c0.3-9.9-7.2-18.4-17-19.4l-1-0.1C203.7,112,197.4,120.7,197.1,131.4"/>
<path class="st24" d="M219.7,166.9c0,0-6.5-0.2-12.9-5.2c0,0,2.4,7.7,12.6,7.8L219.7,166.9z"/>
<path class="st10" d="M228.7,138.5c-0.1,0.8-0.8,1.4-1.6,1.3c-0.8,0-1.4-0.7-1.4-1.5c0.1-0.8,0.8-1.4,1.6-1.3
	C228.2,137.1,228.8,137.7,228.7,138.5"/>
<path class="st10" d="M229.7,136.8c-0.2,0.2-1.2-0.8-2.8-0.9c-1.6-0.2-2.8,0.5-2.9,0.3c-0.1-0.1,0.1-0.4,0.7-0.7
	c0.5-0.3,1.4-0.6,2.4-0.5c1,0.1,1.8,0.6,2.2,1C229.7,136.3,229.8,136.7,229.7,136.8"/>
<path class="st10" d="M213.3,137.4c-0.1,0.8-0.8,1.4-1.6,1.3c-0.8,0-1.4-0.7-1.4-1.5c0.1-0.8,0.8-1.4,1.6-1.3
	C212.8,136,213.4,136.6,213.3,137.4"/>
<path class="st10" d="M214.3,135.4c-0.2,0.2-1.2-0.8-2.8-0.9c-1.6-0.2-2.8,0.5-2.9,0.3c-0.1-0.1,0.1-0.4,0.7-0.7
	c0.5-0.3,1.4-0.6,2.4-0.5c1,0.1,1.8,0.6,2.2,1C214.3,135,214.4,135.3,214.3,135.4"/>
<path class="st10" d="M218.7,147.6c0-0.1,1-0.2,2.6-0.2c0.4,0,0.8,0,0.9-0.3c0.1-0.3,0-0.7-0.1-1.2c-0.3-1-0.6-2.1-0.9-3.2
	c-1.2-4.5-2-8.2-1.8-8.2c0.2,0,1.3,3.6,2.5,8.1c0.3,1.1,0.6,2.2,0.8,3.2c0.1,0.5,0.3,1,0,1.6c-0.1,0.3-0.5,0.5-0.7,0.5
	c-0.3,0.1-0.5,0-0.7,0C219.7,147.8,218.7,147.7,218.7,147.6"/>
<path class="st10" d="M214,148.2c0.3,0,0.1,1.7,1.4,3.1c1.3,1.4,3.2,1.4,3.1,1.6c0,0.1-0.4,0.3-1.2,0.2c-0.8-0.1-1.8-0.4-2.6-1.2
	c-0.8-0.8-1.1-1.9-1.1-2.6C213.7,148.6,213.9,148.2,214,148.2"/>
<path class="st10" d="M215.4,129.3c-0.2,0.4-1.7,0-3.6,0.1c-1.9,0-3.4,0.4-3.6,0c-0.1-0.2,0.2-0.6,0.9-0.9c0.6-0.3,1.6-0.6,2.7-0.6
	c1.1,0,2.1,0.3,2.7,0.6C215.1,128.8,215.4,129.1,215.4,129.3"/>
<path class="st10" d="M229.6,132.2c-0.3,0.3-1.4-0.2-2.6-0.3c-1.3-0.2-2.4,0-2.6-0.4c-0.1-0.2,0.1-0.5,0.6-0.8
	c0.5-0.3,1.3-0.5,2.2-0.4c0.9,0.1,1.6,0.5,2,0.9C229.6,131.6,229.7,132,229.6,132.2"/>
<path class="st17" d="M197.2,139c-0.2-0.1-6.8-2.8-7.3,4.2c-0.5,7,6.6,6.1,6.6,5.9C196.5,148.8,197.2,139,197.2,139"/>
<path class="st24" d="M194.6,146.2c0,0-0.1,0.1-0.3,0.2c-0.2,0.1-0.6,0.1-0.9,0c-0.7-0.3-1.3-1.5-1.2-2.8c0-0.6,0.2-1.2,0.5-1.7
	c0.3-0.5,0.6-0.8,1-0.9c0.4-0.1,0.6,0.2,0.7,0.4c0.1,0.2,0,0.3,0.1,0.4c0,0,0.2-0.1,0.1-0.4c0-0.1-0.1-0.3-0.2-0.5
	c-0.2-0.1-0.4-0.2-0.7-0.2c-0.5,0-1.1,0.5-1.3,1c-0.3,0.5-0.5,1.2-0.6,1.9c-0.1,1.4,0.6,2.8,1.6,3.1c0.5,0.2,0.9,0,1.1-0.1
	C194.5,146.4,194.6,146.3,194.6,146.2"/>
<path class="st10" d="M234.8,130.1c-4.6,0.7-9.5-1-12.7-4.3c-2.3-2.4-3.8-5.6-6.8-6.9c-2-0.9-4.4-0.7-6.4,0.2
	c-2,0.9-3.7,2.3-5.3,3.9c1.4,5.4-0.5,11-2.4,16.2c-0.2,0.6-0.5,1.2-1,1.5c-0.9,0.5-2.1-0.1-2.7-0.9c-1-1.3-1.3-3.1-1.4-4.7
	c-0.3-3.8,0-7.7,1.3-11.3c1.2-3.6,3.4-6.9,6.4-9.3c3.8-2.9,8.7-4.1,13.5-3.5c4.7,0.6,9.2,2.8,12.6,6.1c1.6,1.5,3.1,3.3,3.7,5.4"/>
<path class="st14" d="M39.3,345.2c3.6-1.8,7.8-2.1,11.7-1.4c2.1,0.4,4.3,1,5.8,2.6c1.4,1.6,1.7,4.4,0.1,5.8c-1,0.8-2.4,0.9-3.7,0.9
	c-3.1,0-6.5-0.6-9,1.3c-1.4,1.1-2.4,2.8-4,3.4c-1.7,0.5-3.5-0.5-4.4-2s-0.9-3.4-0.5-5C35.2,350.7,35.7,347,39.3,345.2"/>
<path class="st14" d="M31.1,329.4c2.2,3.1,6.4,2.1,8.4,0.2c2-1.9,2.8-4.7,3.6-7.3c1.7-6,3.5-12.3,2.2-18.4c-0.4-1.8-1.1-3.6-2.4-5
	c-1.3-1.4-3.3-2.2-5.1-1.7c-2.1,0.6-3.5,2.7-4.4,4.6c-2.8,5.9-4.3,12.3-4.3,18.8C29,323.7,29.4,326.9,31.1,329.4"/>
<path class="st14" d="M25.1,333.9c2.4-2.8,2.8-6.9,1.8-10.4c-1.1-3.5-3.4-6.5-6.2-9c-3.2-2.9-7-5.1-11.1-6.5c-1.6-0.6-3.3-1-5-0.8
	c-1.7,0.2-3.4,1-4.2,2.5c-1.2,2.2,0,4.9,1.2,7.1c2.1,3.9,4.6,7.6,7.3,11.1c2.2,2.8,4.7,5.6,8,6.8c3.3,1.3,6.8,1.1,8.5-1.2"/>
<path class="st10" d="M30.9,376.4c0,0,0.1-0.5,0.2-1.4c0.1-1,0.2-2.3,0.4-3.9c0.2-1.6,0.4-3.6,0.9-5.7c0.5-2.1,1.2-4.4,2.1-6.7
	c0.9-2.3,2.1-4.4,3.4-6c1.3-1.7,2.9-2.9,4.3-3.6c1.4-0.7,2.7-1,3.6-1.1c0.9-0.1,1.4-0.2,1.4-0.2c0,0-0.5,0-1.4,0
	c-0.9,0.1-2.3,0.3-3.8,1c-1.5,0.7-3.2,1.9-4.6,3.6c-1.4,1.7-2.6,3.8-3.5,6.2c-0.9,2.3-1.6,4.6-2,6.8c-0.4,2.1-0.6,4.1-0.8,5.7
	c-0.1,1.6-0.2,3-0.2,3.9C30.9,375.9,30.9,376.4,30.9,376.4"/>
<path class="st10" d="M31.2,373.4c0,0,0-0.2,0-0.7c0-0.5,0-1.1,0-1.9c0-1.6,0-4,0.1-6.9c0.1-5.8,0.6-12.1,1.6-20.9
	c0.9-8.3,2.1-18,3.4-24.3c0.3-1.4,0.6-2.7,0.8-3.8c0.3-1.1,0.5-2.1,0.7-2.9c0.2-0.7,0.3-1.3,0.4-1.8c0.1-0.4,0.1-0.6,0.1-0.6
	c0,0-0.1,0.2-0.2,0.6c-0.1,0.5-0.3,1.1-0.5,1.8c-0.2,0.8-0.5,1.7-0.8,2.9c-0.3,1.1-0.6,2.4-0.9,3.8c-1.3,5.7-2.6,13.7-3.6,22.5
	c-1,8.9-1.4,16.9-1.4,22.8c0,2.9,0,5.3,0.1,6.9c0,0.8,0.1,1.4,0.1,1.9C31.2,373.2,31.2,373.4,31.2,373.4"/>
<path class="st10" d="M31.2,357.8c0,0,0-0.7,0-2c-0.1-1.3-0.2-3.1-0.6-5.3c-0.4-2.2-0.9-4.9-1.7-7.7c-0.4-1.3-1.2-4.5-3.2-9.2
	c-2.7-6.4-6.3-11.6-9.5-14.8c-0.7-0.9-1.6-1.5-2.2-2.1c-0.3-0.3-0.6-0.6-1-0.8c-0.3-0.2-0.6-0.4-0.9-0.6c-1-0.7-1.6-1.1-1.7-1.1
	c-0.1,0.1,2.3,1.6,5.4,4.8c3.1,3.3,6.6,8.4,9.3,14.7c1.5,3.4,2.5,6.5,3.3,9.1c0.8,2.8,1.4,5.5,1.8,7.7c0.4,2.2,0.6,4,0.8,5.3
	C31.1,357.2,31.2,357.8,31.2,357.8"/>
<polygon class="st10" points="16.2,385.3 17.8,406.6 45.2,406.6 46.8,385.3 "/>
<rect x="13.6" y="376.9" class="st10" width="36.5" height="8.4"/>
<polygon class="st15" points="13.6,405.8 13.6,408.1 15.3,408.1 49.4,408.1 49.4,405.8 "/>
<polygon class="st15" points="17,412.2 15.3,408.1 48.1,408.1 46.2,412.2 "/>
<path class="st1" d="M46.2,392.2c0,0,0,0.1-0.1,0.2c-0.1,0.1-0.2,0.3-0.4,0.5c-0.4,0.5-0.9,1.2-1.6,2l-0.1,0.1L44,395
	c-1-1.4-2.3-3.2-3.9-5.4h0.2c-1.2,1.7-2.5,3.5-3.9,5.5l-0.1,0.2l-0.1-0.2c-1.4-1.7-3-3.5-4.6-5.5l0.3,0c-0.1,0.1-0.2,0.2-0.3,0.3
	c-1.4,1.8-2.8,3.5-4.1,5.1l-0.1,0.2l-0.1-0.2c-1.4-2-2.7-3.8-3.9-5.5l0.2,0c-1.9,2.2-3.5,4-4.8,5.4l-0.1,0.1l-0.1-0.1
	c-0.6-1.1-1.1-1.9-1.5-2.5c-0.2-0.3-0.3-0.5-0.4-0.7c-0.1-0.2-0.1-0.2-0.1-0.2c0,0,0.1,0.1,0.2,0.2c0.1,0.2,0.3,0.4,0.4,0.6
	c0.4,0.6,0.9,1.4,1.6,2.5l-0.1,0c1.2-1.4,2.8-3.3,4.7-5.5l0.1-0.1l0.1,0.1c1.2,1.7,2.5,3.5,3.9,5.4l-0.3,0c1.3-1.6,2.7-3.4,4.1-5.1
	c0.1-0.1,0.2-0.2,0.3-0.3l0.1-0.2l0.1,0.2c1.6,1.9,3.1,3.8,4.6,5.5l-0.3,0c1.4-2,2.7-3.8,3.9-5.4l0.1-0.2l0.1,0.2
	c1.5,2.2,2.9,4.1,3.8,5.5l-0.1,0c0.7-0.8,1.3-1.5,1.7-2c0.2-0.2,0.3-0.4,0.4-0.5C46.2,392.3,46.2,392.2,46.2,392.2"/>
<path class="st15" d="M47.1,385.1c0,0.1-6.9,0.2-15.3,0.2c-8.5,0-15.3-0.1-15.3-0.2s6.9-0.2,15.3-0.2C40.3,385,47.1,385,47.1,385.1"
	/>
<path class="st10" d="M48.5,408.4c0,0.1-7.5,0.2-16.7,0.2c-9.2,0-16.7-0.1-16.7-0.2c0-0.1,7.5-0.2,16.7-0.2
	C41.1,408.2,48.5,408.3,48.5,408.4"/>
<polygon class="st13" points="372.6,162.7 353.6,242.3 358.9,242.3 377.7,162.7 "/>
<path class="st13" d="M365.3,215.1C365,216.6,374,260,374,260h-4.3l-6.8-34.4L365.3,215.1z"/>
<rect x="339.5" y="317.4" class="st14" width="89.2" height="94.6"/>
<rect x="428.8" y="331.2" class="st10" width="4.4" height="4.4"/>
<rect x="428.8" y="345.1" class="st10" width="4.4" height="4.4"/>
<rect x="428.8" y="359.1" class="st10" width="4.4" height="4.4"/>
<rect x="428.8" y="373" class="st10" width="4.4" height="4.4"/>
<path class="st10" d="M433.3,360.3c0,0,0.5-0.1,1.3-0.3c0.9-0.1,2.1-0.4,3.8-0.4c1.6,0,3.6,0.3,5.4,1.4c0.9,0.6,1.8,1.4,2.3,2.5
	c0.6,1.1,0.8,2.3,0.7,3.6c-0.1,1.2-0.5,2.4-1.1,3.4c-0.6,1-1.4,1.8-2.3,2.4c-1.7,1.3-3.6,1.8-5.2,2.1c-1.6,0.2-2.9,0.2-3.8,0.1
	c-0.9-0.1-1.4-0.2-1.4-0.2c0,0,0.5,0,1.4,0c0.9,0,2.2,0,3.7-0.3c1.5-0.3,3.3-0.9,5-2.1c1.6-1.2,3-3.2,3.2-5.5
	c0.1-1.2-0.1-2.3-0.6-3.3c-0.5-1-1.3-1.7-2.1-2.3c-1.7-1.1-3.6-1.4-5.2-1.5c-1.6,0-2.8,0.1-3.7,0.2
	C433.8,360.3,433.3,360.4,433.3,360.3"/>
<path class="st10" d="M432.2,346.5c0,0,0.1-0.1,0.4-0.3c0.3-0.1,0.7-0.3,1.3-0.5c1.1-0.4,3-0.7,5.1-0.3c0.5,0.1,1.1,0.3,1.6,0.6
	c0.5,0.3,1,0.9,1.2,1.6c0.4,1.3-0.1,2.8-1,4c-0.5,0.6-1.1,1.1-1.8,1.4c-0.7,0.3-1.7,0.3-2.4-0.1c-0.7-0.4-1.4-1.2-1.4-2.1
	c0-0.9,0.6-1.8,1.4-2.2c0.8-0.4,1.7-0.4,2.6-0.3c0.8,0.2,1.6,0.6,2.2,1.1c1.3,1,2.1,2.5,2.2,4c0.2,1.5-0.4,2.9-1.1,4
	c-0.8,1.1-1.8,1.8-2.7,2.3c-2,1-3.8,1.2-5,1.3c-0.6,0-1.1,0.1-1.4,0.1c-0.3,0-0.5,0-0.5,0c0,0,0.7-0.1,1.9-0.2
	c1.2-0.2,2.9-0.4,4.8-1.4c0.9-0.5,1.9-1.2,2.6-2.2c0.7-1,1.2-2.3,1-3.7c-0.2-1.4-0.9-2.7-2.1-3.6c-0.6-0.5-1.3-0.8-2-1
	c-0.7-0.1-1.5-0.1-2.2,0.2c-0.7,0.3-1.1,1-1.1,1.7c0,0.7,0.5,1.3,1.1,1.7c0.6,0.4,1.4,0.4,2,0.1c0.7-0.2,1.2-0.7,1.6-1.2
	c0.9-1,1.3-2.4,1-3.6c-0.3-1.2-1.4-1.8-2.5-2c-2.1-0.5-3.8-0.2-5,0.1C432.8,346.2,432.2,346.6,432.2,346.5"/>
<path class="st10" d="M432.3,332.9c0,0,0.3-0.1,1-0.2c0.6,0,1.6,0,2.7,0.4c1.1,0.4,2.3,1.1,3.3,2.2c1,1.2,1.7,2.8,1.7,4.6
	c0,1.8-0.5,3.5-1.4,4.7c-0.9,1.2-2.1,2-3.2,2.4c-1.1,0.4-2,0.5-2.6,0.5c-0.6,0-1-0.1-1-0.1c0-0.1,1.4,0.2,3.5-0.8
	c1-0.5,2.1-1.2,3-2.4c0.9-1.2,1.4-2.7,1.3-4.4c-0.1-1.7-0.7-3.2-1.6-4.3c-0.9-1.1-2.1-1.8-3.1-2.2
	C433.7,332.7,432.3,333,432.3,332.9"/>
<path class="st10" d="M366,267.2c0,0,0.4,0.6,0.8,1.8c0.4,1.2,0.8,3,1.2,5.4c0.4,2.4,0.7,5.3,1,8.6c0.3,3.4,0.6,7.2,1.1,11.5
	c0.1,1.1,0.3,2.1,0.5,3.2c0.2,1.1,0.5,2.2,1,3.2c0.5,1,1.3,1.9,2.2,2.7c0.9,0.8,1.8,1.6,2.9,2.2c2.1,1.3,4.6,2.2,7.2,2.5
	c2.6,0.3,5.4-0.1,7.9-1.4c2.5-1.2,4.5-3.6,5.1-6.4c0.3-1.4,0.2-2.9-0.3-4.3c-0.5-1.4-1.5-2.5-2.8-3.3c-1.2-0.8-2.7-1.3-4.2-1.4
	c-1.5-0.1-3.1,0.3-4.3,1.3c-0.6,0.5-1.1,1-1.4,1.7c-0.3,0.7-0.4,1.4-0.3,2.2c0.3,1.5,1.4,2.8,2.8,3.5c1.4,0.8,3,1.1,4.6,1.3
	c1.6,0.2,3.2,0.3,4.7,0.3c3.2,0.1,6.3-0.2,9.3-0.5c6.1-0.7,12-1.7,17.6-1.7c5.6-0.1,11.1,0.7,15.7,3c2.3,1.1,4.3,2.6,5.8,4.4
	c1.6,1.8,2.6,3.9,3,6c0.9,4.3-0.1,8.3-1.7,11.3c-1.7,3-4,5-5.9,6.3c-2,1.3-3.7,2.1-4.9,2.5c-1.2,0.4-1.8,0.6-1.8,0.6
	s0.2-0.1,0.5-0.2c0.3-0.1,0.8-0.3,1.3-0.5c1.2-0.5,2.9-1.2,4.8-2.6c1.9-1.4,4.2-3.4,5.8-6.3c1.6-2.9,2.5-6.9,1.6-11
	c-0.5-2-1.4-4.1-3-5.8c-1.5-1.7-3.5-3.2-5.7-4.2c-4.5-2.2-9.9-3-15.5-2.9c-5.6,0.1-11.5,1.1-17.6,1.7c-3.1,0.3-6.2,0.6-9.4,0.5
	c-1.6,0-3.2-0.1-4.8-0.3c-1.6-0.2-3.3-0.5-4.7-1.3c-1.5-0.8-2.7-2.2-3-3.9c-0.2-0.8,0-1.7,0.3-2.5c0.4-0.8,0.9-1.4,1.6-1.9
	c1.3-1,3-1.4,4.6-1.4c1.6,0.1,3.2,0.6,4.5,1.5c1.3,0.9,2.4,2.1,3,3.6c0.6,1.5,0.6,3.1,0.3,4.5c-0.6,3-2.8,5.4-5.4,6.7
	c-2.6,1.3-5.5,1.7-8.1,1.4c-2.7-0.3-5.2-1.2-7.4-2.5c-1.1-0.7-2.1-1.4-2.9-2.3c-0.9-0.9-1.7-1.7-2.3-2.8c-0.5-1.1-0.8-2.2-1-3.3
	c-0.2-1.1-0.4-2.2-0.5-3.2c-0.5-4.2-0.8-8.1-1.1-11.5c-0.3-3.4-0.6-6.3-0.9-8.6c-0.3-2.4-0.7-4.2-1.1-5.4c-0.2-0.6-0.3-1.1-0.5-1.3
	C366.1,267.3,366,267.2,366,267.2"/>
<path class="st0" d="M423.7,408c0,0,0-0.1,0-0.4c0-0.3,0-0.7,0-1.2c0-1.1,0-2.6,0-4.7c0-4.1,0-10.1-0.1-17.7
	c0-15.2-0.1-36.9-0.1-62.9l0.2,0.2c-23.6,0-51.2,0-80.7,0h0l0.3-0.3c0,32,0,61.8,0,86.9l-0.2-0.2c24.2,0,44.3,0.1,58.4,0.1
	c7.1,0,12.6,0,16.4,0.1c1.9,0,3.3,0,4.3,0C423.2,408,423.7,408,423.7,408s-0.5,0-1.5,0c-1,0-2.4,0-4.3,0c-3.8,0-9.3,0-16.3,0.1
	c-14.1,0-34.3,0.1-58.6,0.1h-0.2V408c0-25.1,0-55,0-86.9v-0.3h0.3h0c29.4,0,57,0,80.7,0h0.2l0,0.2c0,26-0.1,47.8-0.1,63
	c0,7.6,0,13.6-0.1,17.7c0,2,0,3.6,0,4.6c0,0.5,0,0.9,0,1.2C423.7,407.9,423.7,408,423.7,408"/>
<path class="st0" d="M401,331.8c0,0.2-0.2,0.4-0.4,0.4c-0.2,0-0.4-0.2-0.4-0.4s0.2-0.4,0.4-0.4C400.8,331.4,401,331.6,401,331.8"/>
<path class="st0" d="M403.3,331.8c0,0.2-0.2,0.4-0.4,0.4s-0.4-0.2-0.4-0.4s0.2-0.4,0.4-0.4S403.3,331.6,403.3,331.8"/>
<path class="st0" d="M405.5,331.8c0,0.2-0.2,0.4-0.4,0.4c-0.2,0-0.4-0.2-0.4-0.4s0.2-0.4,0.4-0.4
	C405.3,331.4,405.5,331.6,405.5,331.8"/>
<path class="st0" d="M407.8,331.8c0,0.2-0.2,0.4-0.4,0.4c-0.2,0-0.4-0.2-0.4-0.4s0.2-0.4,0.4-0.4
	C407.6,331.4,407.8,331.6,407.8,331.8"/>
<path class="st0" d="M410.1,331.8c0,0.2-0.2,0.4-0.4,0.4s-0.4-0.2-0.4-0.4s0.2-0.4,0.4-0.4S410.1,331.6,410.1,331.8"/>
<path class="st0" d="M412.4,331.8c0,0.2-0.2,0.4-0.4,0.4c-0.2,0-0.4-0.2-0.4-0.4s0.2-0.4,0.4-0.4
	C412.2,331.4,412.4,331.6,412.4,331.8"/>
<path class="st0" d="M414.6,331.8c0,0.2-0.2,0.4-0.4,0.4c-0.2,0-0.4-0.2-0.4-0.4s0.2-0.4,0.4-0.4
	C414.5,331.4,414.6,331.6,414.6,331.8"/>
<path class="st0" d="M413.6,333.4c0,0.2-0.2,0.4-0.4,0.4c-0.2,0-0.4-0.2-0.4-0.4s0.2-0.4,0.4-0.4
	C413.4,332.9,413.6,333.1,413.6,333.4"/>
<path class="st0" d="M411.3,333.4c0,0.2-0.2,0.4-0.4,0.4s-0.4-0.2-0.4-0.4s0.2-0.4,0.4-0.4S411.3,333.1,411.3,333.4"/>
<path class="st0" d="M408.9,333.4c0,0.2-0.2,0.4-0.4,0.4c-0.2,0-0.4-0.2-0.4-0.4s0.2-0.4,0.4-0.4
	C408.7,332.9,408.9,333.1,408.9,333.4"/>
<path class="st0" d="M406.6,333.4c0,0.2-0.2,0.4-0.4,0.4c-0.2,0-0.4-0.2-0.4-0.4s0.2-0.4,0.4-0.4
	C406.4,332.9,406.6,333.1,406.6,333.4"/>
<path class="st0" d="M404.3,333.4c0,0.2-0.2,0.4-0.4,0.4s-0.4-0.2-0.4-0.4s0.2-0.4,0.4-0.4S404.3,333.1,404.3,333.4"/>
<path class="st0" d="M401.9,333.4c0,0.2-0.2,0.4-0.4,0.4c-0.2,0-0.4-0.2-0.4-0.4s0.2-0.4,0.4-0.4
	C401.8,332.9,401.9,333.1,401.9,333.4"/>
<path class="st0" d="M401,335.1c0,0.2-0.2,0.4-0.4,0.4c-0.2,0-0.4-0.2-0.4-0.4s0.2-0.4,0.4-0.4C400.8,334.7,401,334.9,401,335.1"/>
<path class="st0" d="M403.3,335.1c0,0.2-0.2,0.4-0.4,0.4s-0.4-0.2-0.4-0.4s0.2-0.4,0.4-0.4S403.3,334.9,403.3,335.1"/>
<path class="st0" d="M405.5,335.1c0,0.2-0.2,0.4-0.4,0.4c-0.2,0-0.4-0.2-0.4-0.4s0.2-0.4,0.4-0.4
	C405.3,334.7,405.5,334.9,405.5,335.1"/>
<path class="st0" d="M407.8,335.1c0,0.2-0.2,0.4-0.4,0.4c-0.2,0-0.4-0.2-0.4-0.4s0.2-0.4,0.4-0.4
	C407.6,334.7,407.8,334.9,407.8,335.1"/>
<path class="st0" d="M410.1,335.1c0,0.2-0.2,0.4-0.4,0.4s-0.4-0.2-0.4-0.4s0.2-0.4,0.4-0.4S410.1,334.9,410.1,335.1"/>
<path class="st0" d="M412.4,335.1c0,0.2-0.2,0.4-0.4,0.4c-0.2,0-0.4-0.2-0.4-0.4s0.2-0.4,0.4-0.4
	C412.2,334.7,412.4,334.9,412.4,335.1"/>
<path class="st0" d="M414.6,335.1c0,0.2-0.2,0.4-0.4,0.4c-0.2,0-0.4-0.2-0.4-0.4s0.2-0.4,0.4-0.4
	C414.5,334.7,414.6,334.9,414.6,335.1"/>
<path class="st0" d="M413.6,336.6c0,0.2-0.2,0.4-0.4,0.4c-0.2,0-0.4-0.2-0.4-0.4s0.2-0.4,0.4-0.4
	C413.4,336.2,413.6,336.4,413.6,336.6"/>
<path class="st0" d="M411.3,336.6c0,0.2-0.2,0.4-0.4,0.4s-0.4-0.2-0.4-0.4s0.2-0.4,0.4-0.4S411.3,336.4,411.3,336.6"/>
<path class="st0" d="M408.9,336.6c0,0.2-0.2,0.4-0.4,0.4c-0.2,0-0.4-0.2-0.4-0.4s0.2-0.4,0.4-0.4
	C408.7,336.2,408.9,336.4,408.9,336.6"/>
<path class="st0" d="M406.6,336.6c0,0.2-0.2,0.4-0.4,0.4c-0.2,0-0.4-0.2-0.4-0.4s0.2-0.4,0.4-0.4
	C406.4,336.2,406.6,336.4,406.6,336.6"/>
<path class="st0" d="M404.3,336.6c0,0.2-0.2,0.4-0.4,0.4s-0.4-0.2-0.4-0.4s0.2-0.4,0.4-0.4S404.3,336.4,404.3,336.6"/>
<path class="st0" d="M401.9,336.6c0,0.2-0.2,0.4-0.4,0.4c-0.2,0-0.4-0.2-0.4-0.4s0.2-0.4,0.4-0.4
	C401.8,336.2,401.9,336.4,401.9,336.6"/>
<path class="st0" d="M401,338.4c0,0.2-0.2,0.4-0.4,0.4c-0.2,0-0.4-0.2-0.4-0.4s0.2-0.4,0.4-0.4C400.8,337.9,401,338.1,401,338.4"/>
<path class="st0" d="M403.3,338.4c0,0.2-0.2,0.4-0.4,0.4s-0.4-0.2-0.4-0.4s0.2-0.4,0.4-0.4S403.3,338.1,403.3,338.4"/>
<path class="st0" d="M405.5,338.4c0,0.2-0.2,0.4-0.4,0.4c-0.2,0-0.4-0.2-0.4-0.4s0.2-0.4,0.4-0.4
	C405.3,337.9,405.5,338.1,405.5,338.4"/>
<path class="st0" d="M407.8,338.4c0,0.2-0.2,0.4-0.4,0.4c-0.2,0-0.4-0.2-0.4-0.4s0.2-0.4,0.4-0.4
	C407.6,337.9,407.8,338.1,407.8,338.4"/>
<path class="st0" d="M410.1,338.4c0,0.2-0.2,0.4-0.4,0.4s-0.4-0.2-0.4-0.4s0.2-0.4,0.4-0.4S410.1,338.1,410.1,338.4"/>
<path class="st0" d="M412.4,338.4c0,0.2-0.2,0.4-0.4,0.4c-0.2,0-0.4-0.2-0.4-0.4s0.2-0.4,0.4-0.4
	C412.2,337.9,412.4,338.1,412.4,338.4"/>
<path class="st0" d="M414.6,338.4c0,0.2-0.2,0.4-0.4,0.4c-0.2,0-0.4-0.2-0.4-0.4s0.2-0.4,0.4-0.4
	C414.5,337.9,414.6,338.1,414.6,338.4"/>
<path class="st0" d="M413.6,339.9c0,0.2-0.2,0.4-0.4,0.4c-0.2,0-0.4-0.2-0.4-0.4s0.2-0.4,0.4-0.4
	C413.4,339.5,413.6,339.7,413.6,339.9"/>
<path class="st0" d="M411.3,339.9c0,0.2-0.2,0.4-0.4,0.4s-0.4-0.2-0.4-0.4s0.2-0.4,0.4-0.4S411.3,339.7,411.3,339.9"/>
<path class="st0" d="M408.9,339.9c0,0.2-0.2,0.4-0.4,0.4c-0.2,0-0.4-0.2-0.4-0.4s0.2-0.4,0.4-0.4
	C408.7,339.5,408.9,339.7,408.9,339.9"/>
<path class="st0" d="M406.6,339.9c0,0.2-0.2,0.4-0.4,0.4c-0.2,0-0.4-0.2-0.4-0.4s0.2-0.4,0.4-0.4
	C406.4,339.5,406.6,339.7,406.6,339.9"/>
<path class="st0" d="M404.3,339.9c0,0.2-0.2,0.4-0.4,0.4s-0.4-0.2-0.4-0.4s0.2-0.4,0.4-0.4S404.3,339.7,404.3,339.9"/>
<path class="st0" d="M401.9,339.9c0,0.2-0.2,0.4-0.4,0.4c-0.2,0-0.4-0.2-0.4-0.4s0.2-0.4,0.4-0.4
	C401.8,339.5,401.9,339.7,401.9,339.9"/>
<path class="st10" d="M369.4,238.4c0,0,0.6,0,1.6,0.3c1,0.3,2.5,1.1,3.9,2.6c1.4,1.5,2.6,3.8,3.5,6.6c0.9,2.8,1.7,6,2.2,9.7
	c1.1,7.3,1.3,16.1,0.6,25.8c-0.2,2.4-0.8,5-2.2,7.1c-0.7,1.1-1.7,2-2.8,2.7c-1.1,0.7-2.5,1.1-3.9,0.9c-1.4-0.1-2.7-0.7-3.7-1.7
	c-0.5-0.5-0.9-1.1-1.1-1.8c-0.2-0.7-0.2-1.5,0-2.2c0.4-1.4,1.4-2.6,2.8-3.1c0.7-0.3,1.5-0.2,2.2,0c0.7,0.3,1.3,0.7,1.8,1.3
	c0.9,1.2,1.2,2.7,1,4.1c-0.2,1.4-0.8,2.7-1.4,3.9c-1.4,2.4-3.4,4.4-5.7,5.7c-4.7,2.7-10.5,2.6-14.8,0.2c-2.2-1.2-4-2.8-5.4-4.7
	c-1.4-1.8-2.5-3.8-3.3-5.9c-1.6-4.1-2-8.1-2.2-11.8c-0.2-3.7,0-7-0.4-9.9c-0.2-1.4-0.5-2.8-0.9-3.9c-0.4-1.2-1-2.1-1.7-2.9
	c-1.3-1.6-2.7-2.4-3.7-2.7c-1-0.3-1.6-0.3-1.6-0.4c0,0,0.6,0,1.6,0.3c1,0.3,2.5,1.1,3.8,2.7c0.7,0.8,1.3,1.8,1.7,3
	c0.5,1.2,0.8,2.5,1,4c0.4,2.9,0.2,6.2,0.4,9.9c0.2,3.6,0.7,7.7,2.2,11.7c0.8,2,1.8,4,3.2,5.7c1.4,1.8,3.2,3.4,5.3,4.5
	c4.2,2.3,9.8,2.4,14.3-0.2c2.2-1.3,4.2-3.2,5.5-5.6c0.6-1.2,1.2-2.4,1.4-3.7c0.2-1.3-0.1-2.7-0.9-3.8c-0.4-0.5-0.9-0.9-1.5-1.2
	c-0.6-0.2-1.3-0.2-1.9,0c-1.2,0.4-2.1,1.6-2.5,2.8c-0.4,1.2,0.1,2.6,1,3.5c0.9,0.9,2.1,1.4,3.4,1.6c1.3,0.1,2.5-0.2,3.6-0.9
	c1.1-0.6,2-1.6,2.7-2.6c1.4-2.1,1.9-4.5,2.2-6.9c0.7-9.6,0.5-18.4-0.5-25.6c-0.5-3.6-1.3-6.9-2.1-9.6c-0.8-2.8-2-5-3.4-6.6
	c-1.4-1.5-2.8-2.3-3.8-2.6C370,238.4,369.4,238.4,369.4,238.4"/>
<rect x="328.4" y="252.8" class="st1" width="33.2" height="6.3"/>
<rect x="78.5" y="318.3" class="st10" width="43.3" height="93.3"/>
<path class="st15" d="M118.1,401.7c0,0,0-0.1,0-0.4c0-0.3,0-0.7,0-1.2c0-1,0-2.5,0-4.5c0-3.9,0-9.6-0.1-16.7
	c0-14.2-0.1-34.2-0.1-57.5l0.2,0.2c-11.2,0-23.5,0-36.2,0h0l0.3-0.3c0,31.2-0.1,59.5-0.1,80.2l-0.2-0.2c11.2,0,20.2,0.1,26.5,0.1
	c3.1,0,5.6,0,7.2,0c0.8,0,1.4,0,1.9,0C117.8,401.7,118.1,401.7,118.1,401.7s-0.2,0-0.6,0c-0.4,0-1.1,0-1.9,0c-1.7,0-4.1,0-7.2,0
	c-6.3,0-15.4,0.1-26.6,0.1l-0.2,0v-0.2c0-20.8,0-49.1-0.1-80.2v-0.3h0.3h0c12.7,0,25,0,36.2,0h0.2v0.2c0,23.4-0.1,43.4-0.1,57.7
	c0,7.1-0.1,12.7-0.1,16.6c0,1.9,0,3.4,0,4.4c0,0.5,0,0.9,0,1.1C118.1,401.6,118.1,401.7,118.1,401.7"/>
<path class="st15" d="M115.8,328.3c0,0,0-0.3,0-1c0-0.7,0-1.6-0.1-2.7l0.1,0.1c-5.6,0.1-17.6,0.1-31.5,0.1h0
	c0.1-0.1-0.3,0.3,0.3-0.3v0v0v0v0v0v0.1v0.1v0.2l0,0.5v0.9c0,0.6,0,1.2,0,1.8l-0.3-0.3c8.8,0,16.7,0.1,22.3,0.1
	c2.8,0,5.1,0.1,6.7,0.1c0.8,0,1.4,0,1.8,0C115.6,328.3,115.8,328.3,115.8,328.3c0,0-0.2,0-0.6,0c-0.5,0-1,0-1.8,0
	c-1.6,0-3.9,0-6.6,0.1c-5.7,0.1-13.6,0.1-22.5,0.1H84v-0.3c0-0.6,0-1.2,0-1.8c0-0.3,0-0.6,0-0.9v-0.5v-0.2v-0.1v-0.1v0v0v0v0v0
	c0.5-0.5,0.1-0.1,0.3-0.3h0c13.9,0,25.9,0.1,31.5,0.1l0.1,0l0,0.1c0,1.2-0.1,2.1-0.1,2.8C115.9,328,115.8,328.3,115.8,328.3"/>
<path class="st15" d="M87.5,330.9c0,0.1-0.7,0.3-1.5,0.3c-0.8,0-1.5-0.1-1.5-0.3c0-0.1,0.7-0.3,1.5-0.3
	C86.8,330.7,87.5,330.8,87.5,330.9"/>
<path class="st15" d="M115,335.8c0,0.1-6.7,0.3-15,0.3c-8.3,0-15-0.1-15-0.3s6.7-0.3,15-0.3C108.3,335.5,115,335.6,115,335.8"/>
<path class="st15" d="M115.1,341.6c0,0.1-6.6,0.3-14.7,0.3c-8.1,0-14.7-0.1-14.7-0.3c0-0.1,6.6-0.3,14.7-0.3
	C108.5,341.3,115.1,341.4,115.1,341.6"/>
<path class="st14" d="M102.4,355.2c0,1.3-1.1,2.4-2.4,2.4c-1.3,0-2.4-1.1-2.4-2.4c0-1.3,1.1-2.4,2.4-2.4
	C101.3,352.8,102.4,353.8,102.4,355.2"/>
<path class="st15" d="M93.3,355c0,0.1-1.4,0.3-3.2,0.3c-1.8,0-3.2-0.1-3.2-0.3c0-0.1,1.4-0.3,3.2-0.3
	C91.9,354.8,93.3,354.9,93.3,355"/>
<path class="st15" d="M112.6,354.4c0,0.1-1.4,0.3-3,0.3c-1.7,0-3-0.1-3-0.3s1.4-0.3,3-0.3C111.3,354.2,112.6,354.3,112.6,354.4"/>
<path class="st10" d="M80,365.1c0,0-0.6,0-1.6-0.3c-1-0.3-2.6-0.8-4.3-2c-1.7-1.1-3.6-2.9-5.2-5.4c-1.6-2.5-2.9-5.6-3.8-9.2
	c-0.9-3.6-1.5-7.6-1.2-12c0.3-4.3,1.6-9,4.5-12.9c1.4-2,3.3-3.8,5.4-5.2c1.1-0.7,2.3-1.3,3.5-1.7c1.2-0.4,2.5-0.7,3.9-0.9
	c2.6-0.4,5.3-0.3,8.1-0.5c2.7-0.2,5.5-0.6,7.9-1.8c2.5-1.2,4.4-3.4,4.9-6c0.6-2.6-0.1-5.4-1.8-7.3c-1.7-1.9-4.2-3.1-6.6-3
	c-1.2,0.1-2.4,0.5-3.3,1.2c-0.9,0.7-1.5,1.9-1.4,3c0.2,2.3,2.3,4.2,4.5,4.3c2.2,0.2,4.3-1,5.7-2.6c1.4-1.6,2.2-3.5,2.8-5.4
	c0.5-1.9,0.9-3.8,1.2-5.6c1-7.3,0.7-13.2,0.5-17.3c-0.1-2-0.2-3.6-0.2-4.7c0-0.5,0-0.9-0.1-1.2c0-0.3,0-0.4,0-0.4c0,0,0,0.1,0.1,0.4
	c0,0.3,0.1,0.7,0.1,1.2c0.1,1.1,0.2,2.7,0.3,4.7c0.2,4.1,0.6,10.1-0.4,17.4c-0.3,1.8-0.6,3.7-1.1,5.7c-0.5,1.9-1.4,3.9-2.8,5.6
	c-1.5,1.6-3.6,2.9-6.1,2.7c-2.4-0.1-4.7-2.1-4.9-4.7c-0.1-1.3,0.5-2.6,1.6-3.4c1-0.8,2.3-1.3,3.6-1.4c2.6-0.2,5.3,1.1,7.1,3.1
	c1.8,2,2.5,5,1.9,7.8c-0.3,1.4-0.9,2.7-1.8,3.8c-0.9,1.1-2.1,2-3.3,2.6c-2.6,1.3-5.4,1.7-8.1,1.9c-2.7,0.2-5.4,0.1-8,0.5
	c-1.3,0.2-2.6,0.5-3.8,0.9c-1.2,0.4-2.3,1-3.4,1.7c-2.1,1.4-3.9,3.1-5.3,5c-2.9,3.9-4.2,8.4-4.5,12.7c-0.3,4.3,0.2,8.3,1.1,11.8
	c0.9,3.5,2.1,6.6,3.7,9.1c1.5,2.5,3.4,4.2,5,5.4c1.7,1.2,3.2,1.7,4.2,2.1c0.5,0.2,0.9,0.2,1.2,0.3C79.8,365,80,365.1,80,365.1"/>
<rect x="65.2" y="173.6" class="st13" width="102.6" height="70.5"/>
<rect x="108.6" y="234.4" class="st13" width="14" height="26.6"/>
<polygon class="st10" points="75.4,260 75.4,269.6 128.3,269.6 128.3,412 133.2,412 133.2,269.6 354.3,270.7 354.3,412 359.1,412 
	359.1,270.4 393.2,270.7 393.2,259.2 "/>
<polygon class="st10" points="109.3,267.7 130.2,282.7 128.3,284.5 107.3,268.6 "/>
<polygon class="st10" points="378.8,269.1 354.5,286.4 356.3,288.1 380.7,270 "/>
<rect x="152.4" y="256.5" class="st10" width="54.7" height="4"/>
<rect class="st25" width="453.8" height="439.7"/>
<rect class="st25" width="453.8" height="439.7"/>
<g id="conference" class="st26">
	<path class="st10" d="M49.9,194.8h0.5v0.5h-0.5V194.8z"/>
	<path class="st10" d="M48.9,194.8h0.5v0.5h-0.5V194.8z"/>
	<path class="st10" d="M42.5,194.5h1l1,1c0,0,0.1,0.1,0.2,0.1c0,0,0.1,0,0.1,0c0.1,0,0.2-0.1,0.2-0.2v-0.8h0.8
		c0.4,0,0.8-0.4,0.8-0.8v-1.6c0-0.4-0.4-0.8-0.8-0.8h-3.2c-0.4,0-0.8,0.4-0.8,0.8v1.6C41.7,194.2,42.1,194.5,42.5,194.5z
		 M42.2,192.2c0-0.1,0.1-0.3,0.3-0.3h3.2c0.1,0,0.3,0.1,0.3,0.3v1.6c0,0.1-0.1,0.3-0.3,0.3h-1.1c-0.1,0-0.3,0.1-0.3,0.3v0.4
		l-0.6-0.6c0,0-0.1-0.1-0.2-0.1h-1.1c-0.1,0-0.3-0.1-0.3-0.3V192.2z"/>
	<path class="st10" d="M42.8,192.7h0.5v0.5h-0.5V192.7z"/>
	<path class="st10" d="M43.8,192.7h1.6v0.5h-1.6V192.7z"/>
	<path class="st10" d="M56.8,194.8h-3.2c-0.4,0-0.8,0.4-0.8,0.8v0.5h-1.4c0-0.1,0-0.2,0.1-0.3h0.3c0.3,0,0.5-0.2,0.5-0.5v-0.3
		c0-0.3-0.2-0.5-0.5-0.5h-0.3v-0.3c0.5-0.3,0.8-0.9,0.8-1.5v-1.1c0-0.1-0.1-0.3-0.3-0.3h-3.2c-1,0-1.9,0.8-1.9,1.9v0.5
		c0,0.4,0.4,0.8,0.8,0.8h-0.3c-0.3,0-0.5,0.2-0.5,0.5v0.3c0,0.3,0.2,0.5,0.5,0.5h0.3c0,0.1,0,0.2,0.1,0.3h-5.4
		c-0.4,0-0.8,0.4-0.8,0.8v6.9c0,0.4,0.4,0.8,0.8,0.8h5.3l-0.2,1.1h-0.3c-0.1,0-0.2,0-0.2,0.1l-0.8,1.1c-0.1,0.1-0.1,0.3,0.1,0.4
		c0,0,0.1,0.1,0.2,0.1h6.4c0.1,0,0.3-0.1,0.3-0.3c0-0.1,0-0.1-0.1-0.2l-0.8-1.1c-0.1-0.1-0.1-0.1-0.2-0.1h-0.3l-0.2-1.1h5.3
		c0.4,0,0.8-0.4,0.8-0.8v-8.2C57.6,195.2,57.3,194.8,56.8,194.8z M47.8,195.3h-0.3v-0.3h0.3V195.3z M51.8,195.1v0.3h-0.3v-0.3H51.8z
		 M47.8,194c-0.1,0-0.3-0.1-0.3-0.3v-0.5c0-0.7,0.6-1.3,1.3-1.3h2.9v0.8c0,0.4-0.2,0.8-0.5,1.1l-0.8-0.2c-0.1,0-0.2,0-0.3,0.1
		c-0.1,0-0.1,0.1-0.2,0.2c-0.1,0.1-0.3,0.2-0.5,0.2c0-0.1,0.1-0.2,0.1-0.2c0.1-0.2,0.1-0.3,0-0.5c0-0.1-0.1-0.1-0.2-0.1h-0.3
		c0,0-0.1,0-0.1,0l-1.1,0.5C47.9,193.8,47.8,193.9,47.8,194L47.8,194z M48.9,200.3c0.1,0.1,0.2,0.1,0.4,0.1c0,0,0.1-0.1,0.1-0.1
		l0.3-0.6l0.3,0.6c0,0.1,0.1,0.1,0.2,0.1h0c0.1,0,0.2,0,0.2-0.1l1.2-1.7c0.9,0.2,1.5,1,1.5,1.8v1.1h-6.9v-1.1c0-0.9,0.6-1.7,1.5-1.8
		L48.9,200.3z M48.2,198.4l0.3-0.1l0.8,0.8l-0.2,0.5L48.2,198.4z M50.2,199.6l-0.2-0.5l0.8-0.8l0.3,0.1L50.2,199.6z M49.7,198.7
		l-0.5-0.5l0.1-0.7c0.3,0.1,0.5,0.1,0.8,0l0.1,0.7L49.7,198.7z M49.7,196.9c-0.7,0-1.3-0.6-1.3-1.3v-1.4l0.7-0.4
		c0,0.1-0.1,0.1-0.1,0.1c-0.1,0.1-0.2,0.3-0.1,0.5c0.1,0.1,0.2,0.2,0.4,0.2c0.4,0,0.8-0.1,1.1-0.4c0,0,0,0,0,0c0,0,0.1,0,0.1-0.1
		l0.4,0.1v1.4C51,196.3,50.4,196.9,49.7,196.9L49.7,196.9z M51.9,206.2l0.4,0.5H47l0.4-0.5H51.9z M48.1,205.7l0.2-1.1H51l0.2,1.1
		H48.1z M57.1,203.8c0,0.1-0.1,0.3-0.3,0.3H42.5c-0.1,0-0.3-0.1-0.3-0.3V203h14.9V203.8z M57.1,202.5H42.2v-5.6
		c0-0.1,0.1-0.3,0.3-0.3h5.6c0.2,0.2,0.4,0.4,0.6,0.6l-0.1,0.5c-0.1,0-0.1,0-0.2,0l-0.8,0.3c-1.2,0.2-2.1,1.2-2.1,2.4v1.3
		c0,0.1,0.1,0.3,0.3,0.3h7.4c0.1,0,0.3-0.1,0.3-0.3v-1.3c0-1.2-0.9-2.2-2.1-2.4l-0.8-0.3c-0.1,0-0.1,0-0.2,0l-0.1-0.5
		c0.2-0.1,0.5-0.3,0.6-0.6h1.7v0.5c0,0.4,0.4,0.8,0.8,0.8h0.8v0.8c0,0.1,0.1,0.2,0.2,0.2c0,0,0.1,0,0.1,0c0.1,0,0.1,0,0.2-0.1l1-1h1
		c0.1,0,0.2,0,0.3,0V202.5z M57.1,197.2c0,0.1-0.1,0.3-0.3,0.3h-1.1c-0.1,0-0.1,0-0.2,0.1l-0.6,0.6v-0.4c0-0.1-0.1-0.3-0.3-0.3h-1.1
		c-0.1,0-0.3-0.1-0.3-0.3v-1.6c0-0.1,0.1-0.3,0.3-0.3h3.2c0.1,0,0.3,0.1,0.3,0.3V197.2z"/>
	<path class="st10" d="M56.1,196.1h0.5v0.5h-0.5V196.1z"/>
	<path class="st10" d="M53.9,196.1h1.6v0.5h-1.6V196.1z"/>
</g>
<g id="conference_1_" class="st26">
	<path class="st10" d="M355.9,59.7h1.3V61h-1.3V59.7z"/>
	<path class="st10" d="M353.2,59.7h1.3V61h-1.3V59.7z"/>
	<path class="st10" d="M337.1,59h2.4l2.5,2.5c0.1,0.1,0.3,0.2,0.5,0.2c0.1,0,0.2,0,0.3-0.1c0.3-0.1,0.4-0.3,0.4-0.6v-2h2
		c1.1,0,2-0.9,2-2v-4c0-1.1-0.9-2-2-2h-8.1c-1.1,0-2,0.9-2,2v4C335.1,58.1,336,59,337.1,59z M336.4,53c0-0.4,0.3-0.7,0.7-0.7h8.1
		c0.4,0,0.7,0.3,0.7,0.7v4c0,0.4-0.3,0.7-0.7,0.7h-2.7c-0.4,0-0.7,0.3-0.7,0.7v1.1l-1.5-1.5c-0.1-0.1-0.3-0.2-0.5-0.2h-2.7
		c-0.4,0-0.7-0.3-0.7-0.7V53z"/>
	<path class="st10" d="M337.7,54.3h1.3v1.3h-1.3V54.3z"/>
	<path class="st10" d="M340.4,54.3h4v1.3h-4V54.3z"/>
	<path class="st10" d="M373.4,59.7h-8.1c-1.1,0-2,0.9-2,2v1.3h-3.6c0.1-0.2,0.1-0.4,0.1-0.7h0.7c0.7,0,1.3-0.6,1.3-1.3v-0.7
		c0-0.7-0.6-1.3-1.3-1.3H360v-0.9c1.3-0.9,2-2.3,2-3.8v-2.7c0-0.4-0.3-0.7-0.7-0.7h-8.1c-2.6,0-4.7,2.1-4.7,4.7V57c0,1.1,0.9,2,2,2
		h-0.7c-0.7,0-1.3,0.6-1.3,1.3V61c0,0.7,0.6,1.3,1.3,1.3h0.7c0,0.2,0.1,0.5,0.1,0.7h-13.7c-1.1,0-2,0.9-2,2v17.5c0,1.1,0.9,2,2,2
		h13.3l-0.5,2.7h-0.8c-0.2,0-0.4,0.1-0.5,0.3l-2,2.7c-0.2,0.3-0.2,0.7,0.1,0.9c0.1,0.1,0.3,0.1,0.4,0.1h16.2c0.4,0,0.7-0.3,0.7-0.7
		c0-0.1,0-0.3-0.1-0.4l-2-2.7c-0.1-0.2-0.3-0.3-0.5-0.3h-0.8l-0.5-2.7h13.3c1.1,0,2-0.9,2-2V61.7C375.4,60.6,374.5,59.7,373.4,59.7z
		 M350.5,61h-0.7v-0.7h0.7V61z M360.6,60.4V61H360v-0.7H360.6z M350.5,57.7c-0.4,0-0.7-0.3-0.7-0.7v-1.3c0-1.9,1.5-3.4,3.4-3.4h7.4
		v2c0,1.1-0.5,2-1.3,2.7l-1.9-0.5c-0.3-0.1-0.6,0.1-0.7,0.3c-0.2,0.1-0.4,0.2-0.5,0.4c-0.3,0.3-0.7,0.5-1.2,0.6
		c0.1-0.2,0.2-0.4,0.3-0.6c0.2-0.4,0.1-0.8,0-1.2c-0.1-0.2-0.3-0.4-0.6-0.4h-0.7c-0.1,0-0.2,0-0.3,0.1l-2.7,1.3
		C350.7,57.2,350.5,57.4,350.5,57.7L350.5,57.7z M353.3,73.5c0.2,0.3,0.6,0.4,0.9,0.2c0.1-0.1,0.2-0.2,0.2-0.3l0.7-1.5l0.7,1.5
		c0.1,0.2,0.3,0.4,0.5,0.4h0.1c0.2,0,0.4-0.1,0.5-0.3l3.1-4.4c2.2,0.5,3.8,2.4,3.7,4.7v2.7h-17.5v-2.7c0-2.2,1.5-4.2,3.7-4.7
		L353.3,73.5z M351.6,68.8l0.8-0.3l2.1,2.1l-0.6,1.3L351.6,68.8z M356.7,71.9l-0.6-1.3l2.1-2.1l0.8,0.3L356.7,71.9z M355.2,69.5
		l-1.3-1.3l0.3-1.9c0.6,0.1,1.3,0.1,2,0l0.3,1.9L355.2,69.5z M355.2,65.1c-1.9,0-3.4-1.5-3.4-3.4v-3.6l1.9-0.9
		c-0.1,0.1-0.2,0.2-0.2,0.3c-0.3,0.3-0.4,0.8-0.2,1.2c0.2,0.3,0.5,0.5,0.9,0.5c1.1,0.1,2.1-0.3,2.9-1.1c0,0,0.1-0.1,0.1-0.1
		c0.1,0,0.2-0.1,0.3-0.1l1.1,0.3v3.5C358.6,63.6,357.1,65.1,355.2,65.1L355.2,65.1z M361,88.6l1,1.3h-13.5l1-1.3H361z M351.3,87.3
		l0.5-2.7h6.9l0.5,2.7H351.3z M374.1,82.6c0,0.4-0.3,0.7-0.7,0.7h-36.3c-0.4,0-0.7-0.3-0.7-0.7v-2h37.7V82.6z M374.1,79.2h-37.7
		V65.1c0-0.4,0.3-0.7,0.7-0.7h14.3c0.4,0.6,1,1.1,1.6,1.4l-0.2,1.3c-0.1,0-0.3-0.1-0.4,0l-2,0.7c-3,0.4-5.2,3-5.2,6v3.4
		c0,0.4,0.3,0.7,0.7,0.7h18.8c0.4,0,0.7-0.3,0.7-0.7v-3.4c0-3-2.2-5.6-5.2-6l-2-0.7c-0.1,0-0.3,0-0.4,0l-0.2-1.3
		c0.6-0.4,1.2-0.8,1.6-1.4h4.2v1.3c0,1.1,0.9,2,2,2h2v2c0,0.3,0.2,0.5,0.4,0.6c0.1,0,0.2,0.1,0.3,0.1c0.2,0,0.4-0.1,0.5-0.2l2.5-2.5
		h2.4c0.2,0,0.5,0,0.7-0.1V79.2z M374.1,65.8c0,0.4-0.3,0.7-0.7,0.7h-2.7c-0.2,0-0.3,0.1-0.5,0.2l-1.5,1.5v-1.1
		c0-0.4-0.3-0.7-0.7-0.7h-2.7c-0.4,0-0.7-0.3-0.7-0.7v-4c0-0.4,0.3-0.7,0.7-0.7h8.1c0.4,0,0.7,0.3,0.7,0.7V65.8z"/>
	<path class="st10" d="M371.4,63.1h1.3v1.3h-1.3V63.1z"/>
	<path class="st10" d="M366,63.1h4v1.3h-4V63.1z"/>
</g>
<g>
	<g>
		<path class="st0" d="M422.8,211.5c0.1-0.3,0.1-0.6,0.1-1s0-0.6-0.1-1l0.9-0.8c0.1-0.1,0.1-0.3,0.1-0.4l-1.5-2.7
			c-0.1-0.1-0.2-0.2-0.4-0.2l-1.1,0.3c-0.5-0.4-1.1-0.7-1.7-1l-0.2-0.7h2c0.2,0,0.4-0.2,0.4-0.4v-5c0-0.2-0.2-0.4-0.4-0.4
			s-0.4,0.2-0.4,0.4v4.6h-9v-2.9c0-0.1,0.1-0.1,0.1-0.1h1.1c0,0,0.1,0,0.1,0c0.4,0.5,1,0.7,1.6,0.7c0.6,0,1.2-0.3,1.6-0.7
			c0.4-0.5,0.6-1.1,0.6-1.7c-0.1-1.1-1-2-2.1-2.1c-0.7,0-1.3,0.2-1.8,0.7c0,0-0.1,0-0.1,0h-1.1c-0.1,0-0.1-0.1-0.1-0.1v-2.9h8.4
			c0.3,0,0.6,0.3,0.6,0.6v2.2c0,0.2,0.2,0.4,0.4,0.4s0.4-0.2,0.4-0.4V195c0-0.7-0.6-1.3-1.3-1.3h-17.6c-0.7,0-1.3,0.6-1.3,1.3v2.8
			c0,0.2,0.2,0.4,0.4,0.4s0.4-0.2,0.4-0.4V195c0-0.3,0.3-0.6,0.6-0.6h8.4v2.9c0,0.5,0.4,0.8,0.8,0.8h1.1c0.2,0,0.4-0.1,0.6-0.3
			c0.3-0.3,0.8-0.5,1.2-0.5c0.8,0.1,1.4,0.7,1.4,1.4c0,0.4-0.1,0.8-0.4,1.2c-0.3,0.3-0.7,0.5-1.1,0.5c-0.4,0-0.8-0.2-1.1-0.5
			c-0.2-0.2-0.4-0.3-0.6-0.3h-1.1c-0.5,0-0.8,0.4-0.8,0.8v2.9h-2.9c-0.1,0-0.1-0.1-0.1-0.1v-1.1c0,0,0-0.1,0-0.1
			c0.5-0.4,0.7-1,0.7-1.6c0-0.6-0.3-1.2-0.7-1.6c-0.5-0.4-1.1-0.6-1.7-0.6c-1.1,0.1-2,1-2.1,2.1c0,0.7,0.2,1.3,0.7,1.8
			c0,0,0,0.1,0,0.1v1.1c0,0.1-0.1,0.1-0.1,0.1h-2.9v-4c0-0.2-0.2-0.4-0.4-0.4s-0.4,0.2-0.4,0.4v7.7c0,0.2,0.2,0.4,0.4,0.4
			s0.4-0.2,0.4-0.4v-3h2.9c0.5,0,0.8-0.4,0.8-0.8v-1.1c0-0.2-0.1-0.4-0.3-0.6c-0.3-0.3-0.5-0.8-0.5-1.2c0.1-0.8,0.7-1.4,1.4-1.4
			c0.4,0,0.8,0.1,1.2,0.4c0.3,0.3,0.5,0.7,0.5,1.1c0,0.4-0.2,0.8-0.5,1.1c-0.2,0.2-0.3,0.4-0.3,0.6v1.1c0,0.5,0.4,0.8,0.8,0.8h2.9
			v2.7l-0.2,0.3h-1c0,0-0.1,0-0.1,0c-0.4-0.5-1-0.7-1.6-0.7c-0.6,0-1.2,0.3-1.6,0.7c-0.4,0.5-0.6,1.1-0.6,1.7c0.1,1.1,1,2,2.1,2.1
			c0.7,0,1.3-0.2,1.8-0.7c0,0,0.1,0,0.1,0h1.1c0.1,0,0.1,0.1,0.1,0.1v1.3l-0.8,0.7c-0.1,0.1-0.1,0.3-0.1,0.4l0.2,0.4h-7.8
			c-0.3,0-0.6-0.3-0.6-0.6v-3.8c0-0.2-0.2-0.4-0.4-0.4s-0.4,0.2-0.4,0.4v3.8c0,0.7,0.6,1.3,1.3,1.3h8.2l0.9,1.6
			c0.1,0.1,0.2,0.2,0.4,0.2l1.1-0.3c0.5,0.4,1.1,0.7,1.7,1l0.3,1.2c0,0.2,0.2,0.3,0.3,0.3h3.1c0.2,0,0.3-0.1,0.3-0.3l0.3-1.2
			c0.6-0.2,1.2-0.6,1.7-1l1.1,0.3c0.2,0,0.3,0,0.4-0.2l1.5-2.7c0.1-0.1,0.1-0.3-0.1-0.4L422.8,211.5z M414.8,204.1l-0.2,0.7
			c-0.6,0.2-1.2,0.6-1.7,1l-1.1-0.3c-0.2,0-0.3,0-0.4,0.2v-1.5H414.8z M409.5,209.4c-0.2,0-0.4,0.1-0.6,0.3
			c-0.3,0.3-0.8,0.5-1.2,0.5c-0.8-0.1-1.4-0.7-1.4-1.4c0-0.4,0.1-0.8,0.4-1.2c0.3-0.3,0.7-0.5,1.1-0.5c0.4,0,0.8,0.2,1.1,0.5
			c0.2,0.2,0.4,0.3,0.6,0.3h0.6l-0.3,0.5c-0.1,0.1-0.1,0.3,0.1,0.4l0.7,0.7c0,0,0,0-0.1,0H409.5z M421.7,214.9l-1.1-0.3
			c-0.1,0-0.2,0-0.3,0.1c-0.5,0.5-1.1,0.8-1.8,1c-0.1,0-0.2,0.1-0.2,0.3l-0.3,1.1h-2.5l-0.3-1.1c0-0.1-0.1-0.2-0.2-0.3
			c-0.7-0.2-1.2-0.6-1.8-1c-0.1-0.1-0.2-0.1-0.3-0.1l-1.1,0.3l-0.9-1.5c0,0,0,0,0,0l-0.4-0.7l0.8-0.8c0.1-0.1,0.1-0.2,0.1-0.3
			c-0.1-0.3-0.1-0.7-0.1-1s0-0.7,0.1-1c0-0.1,0-0.2-0.1-0.3l-0.8-0.8l1.3-2.2l1.1,0.3c0.1,0,0.2,0,0.3-0.1c0.5-0.5,1.1-0.8,1.8-1
			c0.1,0,0.2-0.1,0.2-0.3l0.3-1.1h2.5l0.3,1.1c0,0.1,0.1,0.2,0.2,0.3c0.7,0.2,1.2,0.6,1.8,1c0.1,0.1,0.2,0.1,0.3,0.1l1.1-0.3
			l1.3,2.2l-0.8,0.8c-0.1,0.1-0.1,0.2-0.1,0.3c0.1,0.3,0.1,0.7,0.1,1s0,0.7-0.1,1c0,0.1,0,0.2,0.1,0.3l0.8,0.8L421.7,214.9z"/>
		<path class="st0" d="M416.8,206.1c-2.4,0-4.4,2-4.4,4.4c0,2.4,2,4.4,4.4,4.4s4.4-2,4.4-4.4S419.2,206.1,416.8,206.1z M416.8,214.3
			c-2.1,0-3.7-1.7-3.7-3.7s1.7-3.7,3.7-3.7s3.7,1.7,3.7,3.7C420.5,212.6,418.8,214.3,416.8,214.3z"/>
		<path class="st0" d="M417.3,208.8l-1,1c-0.5-0.5-1.2-0.4-1.7,0c-0.5,0.5-0.5,1.2,0,1.7l0.8,0.8c0.2,0.2,0.5,0.3,0.8,0.3
			s0.6-0.1,0.8-0.3l1.8-1.8c0.5-0.5,0.5-1.2,0-1.7C418.5,208.4,417.7,208.4,417.3,208.8L417.3,208.8z M418.4,210l-1.8,1.8
			c-0.1,0.1-0.2,0.1-0.3,0.1c-0.1,0-0.2,0-0.3-0.1l-0.8-0.8c-0.2-0.2-0.2-0.5,0-0.7c0.1-0.1,0.2-0.1,0.3-0.1c0.1,0,0.2,0,0.3,0.1
			l0.2,0.2c0.1,0.1,0.2,0.1,0.2,0.1s0.2,0,0.2-0.1l1.2-1.2c0.2-0.2,0.5-0.2,0.7,0C418.6,209.5,418.6,209.8,418.4,210L418.4,210z"/>
	</g>
</g>
<g>
	<path class="st1" d="M318.3,188.8c0,1.8-1.5,3.3-3.3,3.3h-17.6c-1.8,0-3.3-1.5-3.3-3.3v-37.5c0-1.8,1.5-3.3,3.3-3.3H315
		c1.8,0,3.3,1.5,3.3,3.3v9.9h2.2v-9.9c0-3-2.5-5.5-5.5-5.5h-17.6c-3,0-5.5,2.5-5.5,5.5v37.5c0,3,2.5,5.5,5.5,5.5H315
		c3,0,5.5-2.5,5.5-5.5v-9.9h-2.2V188.8z"/>
	<path class="st1" d="M301.7,149.9c-0.2-0.5-0.6-0.8-1-0.8h-3.3c-1.2,0-2.2,1-2.2,2.2v37.5c0,1.2,1,2.2,2.2,2.2H315
		c1.2,0,2.2-1,2.2-2.2v-9.9H315v9.9h-17.6v-37.5h2.5l0.9,2.6c0.2,0.5,0.6,0.8,1,0.8h8.8c0.5,0,0.9-0.3,1-0.8l0.9-2.6h2.5v9.9h2.2
		v-9.9c0-1.2-1-2.2-2.2-2.2h-3.3c-0.5,0-0.9,0.3-1,0.8l-0.9,2.6h-7.2L301.7,149.9z"/>
	<rect x="303.9" y="149.1" class="st1" width="4.4" height="2.2"/>
	<path class="st1" d="M343.6,178.9h-8.8V170c0-1.8-1.5-3.3-3.3-3.3h-25.4c-1.8,0-3.3,1.5-3.3,3.3s1.5,3.3,3.3,3.3h22v8.5
		c-1.7-1.6-4.2-1.8-6.1-0.6c-0.4,0.3-0.6,0.7-0.5,1.2l2.9,10.7c0.3,1.2,1,2.2,2,3l2.8,2.1v1.7h-1.1c-0.6,0-1.1,0.5-1.1,1.1
		c0,0,0,0,0,0v5.5h2.2V202h14.3v4.4h2.2v-5.5c0-0.6-0.5-1.1-1.1-1.1c0,0,0,0,0,0h-1.1v-1.7l2.2-1.7c1.4-1,2.2-2.7,2.2-4.4v-8.8
		C348,180.8,346,178.9,343.6,178.9z M306.1,171.1c-0.6,0-1.1-0.5-1.1-1.1s0.5-1.1,1.1-1.1h22.2c-0.1,0.4-0.2,0.7-0.2,1.1v1.1H306.1z
		 M345.8,192.1c0,1-0.5,2-1.3,2.6l-2.6,2c-0.3,0.2-0.4,0.5-0.4,0.9v2.2h-9.9v-2.2c0-0.3-0.2-0.7-0.4-0.9l-3.2-2.4
		c-0.6-0.4-1-1.1-1.2-1.8l-2.7-9.8c1.2-0.4,2.5,0.1,3.1,1.2l1.1,1.8v3h2.2V170c0-0.6,0.5-1.1,1.1-1.1s1.1,0.5,1.1,1.1v13.2h2.2v-2.2
		h2.2v2.2h2.2v-2.2h2.2v2.2h2.2v-2.2c1.2,0,2.2,1,2.2,2.2V192.1z"/>
	<path class="st1" d="M299.5,170c0,3.7,3,6.6,6.6,6.6H326v-2.2h-19.8c-2.4,0-4.4-2-4.4-4.4s2-4.4,4.4-4.4h25.4c2.4,0,4.4,2,4.4,4.4
		h2.2c0-3.7-3-6.6-6.6-6.6h-25.4C302.5,163.4,299.5,166.4,299.5,170z"/>
	<path class="st1" d="M331.5,156.8c-2.7,0-5.4,0.8-7.6,2.4l1.3,1.8c1.9-1.3,4.1-2,6.3-2c3.6,0,7,1.8,9,4.7l1.8-1.3
		C339.8,158.9,335.8,156.8,331.5,156.8z"/>
	<path class="st1" d="M331.5,160.1c-1.3,0-2.5,0.2-3.7,0.7l0.8,2c4-1.6,8.4,0.3,10,4.3c1.1,2.7,0.6,5.8-1.4,8l1.7,1.5
		c3.6-4.1,3.2-10.4-0.9-14C336.2,161,333.9,160.1,331.5,160.1z"/>
	<path class="st1" d="M355.5,157.6c-1.4-1.7-3.2-2.9-5.3-3.6c-0.3-7.9-7-14-14.9-13.7c-6.8,0.3-12.4,5.3-13.5,11.9l2.2,0.4
		c1.1-6.6,7.4-11,14-9.9c6.6,1.1,11,7.4,9.9,14c-0.1,0.7-0.3,1.3-0.5,2l2.1,0.7c0.4-1,0.6-2,0.7-3.1c1.4,0.6,2.7,1.5,3.7,2.7
		c1.3,1.6,2,3.5,2,5.5c0,4.9-4,8.8-8.8,8.8h-1.1v2.2h1.1c6.1,0,11-4.9,11-11C357.9,162,357.1,159.6,355.5,157.6z"/>
</g>
<g>
	<path class="st0" d="M87.2,37.2c-0.2,0.1-0.3,0.2-0.3,0.3c0,0.2,0,0.3,0.2,0.4c0.1,0.1,0.3,0.1,0.4,0.1c0.8-0.3,1.7-0.3,2.4,0
		c0.2,0.1,0.5,0,0.6-0.3c0.1-0.2,0-0.5-0.3-0.6C89.3,36.8,88.2,36.8,87.2,37.2z"/>
	<path class="st0" d="M91.4,36.2c0.2,0,0.4-0.1,0.4-0.3c0-0.2,0-0.4-0.2-0.5c-1.8-0.9-3.9-0.9-5.7,0c-0.1,0.1-0.2,0.2-0.3,0.4
		c0,0.2,0.1,0.3,0.2,0.4c0.1,0.1,0.3,0.1,0.5,0c1.5-0.8,3.4-0.8,4.9,0C91.3,36.2,91.4,36.2,91.4,36.2z"/>
	<path class="st0" d="M85.1,34.4c2.3-1.4,5.1-1.4,7.3,0c0.2,0.1,0.5,0,0.6-0.2c0.1-0.2,0.1-0.5-0.1-0.6c-2.5-1.5-5.7-1.5-8.3,0
		c-0.2,0.1-0.3,0.4-0.1,0.6C84.6,34.5,84.9,34.5,85.1,34.4L85.1,34.4z"/>
	<path class="st0" d="M103.4,38.7h-2.7c-0.2,0-0.4,0.2-0.4,0.4v10.6l-5.1,1.9c-0.5-0.5-1.2-0.9-1.9-0.9l-0.7-1.9l-2.9,1.1l1,2.6
		c-0.4,1.3,0.2,2.7,1.4,3.3c1.2,0.6,2.7,0.2,3.4-1l4.8-1.7v5.6c0,0.2,0.2,0.4,0.4,0.4h2.7c0.2,0,0.4-0.2,0.4-0.4V39.1
		C103.9,38.9,103.7,38.7,103.4,38.7z"/>
	<path class="st0" d="M97.9,45.9c0.2-0.1,0.3-0.3,0.3-0.6l-0.9-2.6c-0.5,0.6-1.2,1-1.9,1.3L84.5,48c-0.5,0.2-1.1,0.3-1.7,0.3
		c-0.2,0-0.4,0-0.6,0l0.8,2.2l0.2,0.4c0,0.1,0.1,0.2,0.2,0.3c0.1,0,0.1,0,0.2,0c0.1,0,0.1,0,0.2,0L97.9,45.9z"/>
	<path class="st0" d="M81.2,48c-0.1,0-0.1,0-0.2-0.1c-0.7-0.3-1.3-0.7-1.8-1.3l-0.7,0.3c-0.2,0.1-0.3,0.3-0.3,0.6l1.2,3.3
		c0,0.1,0.1,0.2,0.2,0.3c0.1,0,0.1,0,0.2,0c0.1,0,0.1,0,0.2,0l1.7-0.6c0.2-0.1,0.3-0.3,0.3-0.6L81.2,48z"/>
	<path class="st0" d="M84.2,47.2L95,43.2c0.7-0.2,1.2-0.6,1.7-1.2c0.6-0.7,0.9-1.6,0.9-2.6c0-0.5-0.1-0.9-0.2-1.4
		c-0.1-0.2-0.3-0.3-0.6-0.3l-17.5,6.4c-0.2,0.1-0.3,0.3-0.3,0.6c0.4,1.1,1.2,1.9,2.3,2.4c0.2,0.1,0.5,0.2,0.8,0.2
		c0.2,0,0.5,0.1,0.7,0.1C83.3,47.4,83.7,47.3,84.2,47.2z"/>
</g>
<path class="st0" d="M115.4,210.8c-2.3-0.3-3.8-2.4-3.5-4.7c0.3-2.3,2.4-3.8,4.7-3.5c2.3,0.3,3.8,2.4,3.5,4.7
	C119.7,209.6,117.6,211.2,115.4,210.8"/>
<g>
	<path class="st14" d="M307.4,73.4c-0.2,0-0.3-0.1-0.4-0.2c-4.8-5.6-9.6-0.2-9.8,0c-0.3,0.3-0.7,0.3-0.9-0.1
		c-0.2-0.3-0.2-0.9,0.1-1.2c0.1-0.1,5.9-6.7,11.5,0c0.3,0.3,0.3,0.8,0,1.2C307.8,73.3,307.6,73.4,307.4,73.4z"/>
	<path class="st14" d="M310.5,71c-0.2,0-0.3-0.1-0.4-0.2c-7.8-9.2-15.7-0.4-16,0c-0.3,0.3-0.7,0.3-0.9-0.1c-0.2-0.3-0.2-0.9,0.1-1.2
		c0.1-0.1,9-10.3,17.7,0c0.3,0.3,0.3,0.8,0,1.2C310.9,70.9,310.7,71,310.5,71z"/>
	<path class="st14" d="M313.3,68.7c-0.2,0-0.3-0.1-0.4-0.2c-10.6-12.4-21.1-0.5-21.5,0c-0.3,0.3-0.7,0.3-0.9-0.1
		c-0.2-0.3-0.2-0.9,0.1-1.2c0.1-0.1,11.8-13.5,23.3,0c0.3,0.3,0.3,0.8,0,1.2C313.6,68.6,313.5,68.7,313.3,68.7z"/>
	<polygon class="st14" points="294,81.2 301.9,74.6 310.1,81.2 310.1,78.8 301.9,72.3 294,78.9 	"/>
	<polygon class="st14" points="308.2,81.3 302,76.4 296,81.3 296,90.7 300.1,90.7 300.1,84.4 304.1,84.4 304.1,90.7 308.2,90.7 	"/>
</g>
</svg>
