<?xml version="1.0" encoding="utf-8"?>
<!-- Generator: Adobe Illustrator 22.0.0, SVG Export Plug-In . SVG Version: 6.00 Build 0)  -->
<svg version="1.1" id="Capa_1" xmlns="http://www.w3.org/2000/svg" xmlns:xlink="http://www.w3.org/1999/xlink" x="0px" y="0px"
	 viewBox="0 0 512 356.5" style="enable-background:new 0 0 512 356.5;" xml:space="preserve">
<style type="text/css">
	.st0{fill:#FFFFFF;}
</style>
<g>
	<g>
		<path class="st0" d="M504.5,298.1h-15V34.2c0-16.9-13.8-30.7-30.7-30.7H53.1c-16.9,0-30.7,13.8-30.7,30.7v263.9h-15
			c-4.1,0-7.5,3.3-7.5,7.5v8.9c0,22.1,18,40.1,40.1,40.1h328c4.1,0,7.5-3.3,7.5-7.5c0-4.1-3.3-7.5-7.5-7.5H40
			c-13.8,0-25.1-11.3-25.1-25.1V313h178.3v13.3c0,4.1,3.3,7.5,7.5,7.5h110.5c4.1,0,7.5-3.3,7.5-7.5V313H497v1.5
			c0,13.8-11.3,25.1-25.1,25.1h-51.1c-4.1,0-7.5,3.3-7.5,7.5s3.3,7.5,7.5,7.5h51.1c22.1,0,40.1-18,40.1-40.1v-8.9
			C512,301.4,508.7,298.1,504.5,298.1z M303.8,318.8h-95.6V313h95.6V318.8z M474.6,297.4H37.4V34.2c0-8.7,7.1-15.8,15.8-15.8h405.7
			c8.7,0,15.8,7.1,15.8,15.8L474.6,297.4L474.6,297.4z"/>
	</g>
</g>
<g>
	<g>
		<path class="st0" d="M440.3,32.6H71.7c-12.2,0-22.1,9.9-22.1,22.1v79.5c0,4.1,3.3,7.5,7.5,7.5s7.5-3.3,7.5-7.5V54.7
			c0-3.9,3.2-7.2,7.2-7.2h368.6c3.9,0,7.2,3.2,7.2,7.2v214.5H64.5V188c0-4.1-3.3-7.5-7.5-7.5s-7.5,3.3-7.5,7.5v88.7
			c0,4.1,3.3,7.5,7.5,7.5h397.9c4.1,0,7.5-3.3,7.5-7.5v-222C462.4,42.5,452.5,32.6,440.3,32.6z"/>
	</g>
</g>
</svg>
