<?xml version="1.0" encoding="utf-8"?>
<!-- Generator: Adobe Illustrator 22.0.0, SVG Export Plug-In . SVG Version: 6.00 Build 0)  -->
<svg version="1.1" id="Capa_1" xmlns="http://www.w3.org/2000/svg" xmlns:xlink="http://www.w3.org/1999/xlink" x="0px" y="0px"
	 viewBox="0 0 489.3 385.3" style="enable-background:new 0 0 489.3 385.3;" xml:space="preserve">
<style type="text/css">
	.st0{fill:#FFFFFF;}
</style>
<g>
	<g>
		<path class="st0" d="M79.6,177.7c-10.2,10.2-10.2,26.8,0,37.1c10.2,10.2,26.8,10.2,37.1,0c70.6-70.6,185.5-70.6,256.1,0
			c5.1,5.1,11.8,7.7,18.5,7.7s13.4-2.6,18.5-7.7c10.2-10.2,10.2-26.8,0-37.1C318.8,86.6,170.6,86.6,79.6,177.7z"/>
		<path class="st0" d="M150.4,248.5c-10.2,10.2-10.2,26.8,0,37.1c10.2,10.2,26.8,10.2,37.1,0c31.5-31.6,82.9-31.6,114.4,0
			c5.1,5.1,11.8,7.7,18.5,7.7s13.4-2.6,18.5-7.7c10.2-10.2,10.2-26.8,0-37C287,196.5,202.4,196.5,150.4,248.5z"/>
		<circle class="st0" cx="244.6" cy="342.7" r="34.9"/>
		<path class="st0" d="M481.6,105.7C351-24.9,138.4-24.9,7.6,105.7c-10.2,10.2-10.2,26.8,0,37.1c10.2,10.2,26.8,10.2,37.1,0
			c110.2-110.3,289.6-110.3,399.9,0c5.1,5.1,11.8,7.7,18.5,7.7s13.4-2.6,18.5-7.7C491.9,132.6,491.9,116,481.6,105.7z"/>
	</g>
</g>
</svg>
