<?xml version="1.0" encoding="utf-8"?>
<!-- Generator: Adobe Illustrator 22.0.0, SVG Export Plug-In . SVG Version: 6.00 Build 0)  -->
<svg version="1.1" id="Capa_1" xmlns="http://www.w3.org/2000/svg" xmlns:xlink="http://www.w3.org/1999/xlink" x="0px" y="0px"
	 viewBox="0 0 21.2 35" style="enable-background:new 0 0 21.2 35;" xml:space="preserve">
<style type="text/css">
	.st0{fill:#FFFFFF;}
</style>
<g>
	<path class="st0" d="M18.4,0H2.8C1.5,0,0.4,1.1,0.4,2.4v30.3c0,1.3,1.1,2.4,2.4,2.4h15.6c1.3,0,2.4-1.1,2.4-2.4V2.4
		C20.7,1.1,19.7,0,18.4,0z M8.1,1.7h5c0.2,0,0.3,0.1,0.3,0.3s-0.1,0.3-0.3,0.3h-5C7.9,2.3,7.8,2.1,7.8,2C7.8,1.8,7.9,1.7,8.1,1.7z
		 M10.6,33.8c-0.7,0-1.2-0.5-1.2-1.2s0.5-1.2,1.2-1.2s1.2,0.5,1.2,1.2S11.2,33.8,10.6,33.8z M19.1,30.6H2V3.7h17v26.9H19.1z"/>
</g>
</svg>
