<?xml version="1.0" encoding="utf-8"?>
<!-- Generator: Adobe Illustrator 22.0.0, SVG Export Plug-In . SVG Version: 6.00 Build 0)  -->
<svg version="1.1" id="Layer_1" xmlns="http://www.w3.org/2000/svg" xmlns:xlink="http://www.w3.org/1999/xlink" x="0px" y="0px"
	 viewBox="0 0 504 423" style="enable-background:new 0 0 504 423;" xml:space="preserve">
<style type="text/css">
	.st0{fill:#FFFFFF;}
</style>
<g>
	<path class="st0" d="M456,404h-32V220h32c4.4,0,8-3.6,8-8c0-2.4-1.1-4.7-3-6.2l-76.8-62c37.4-13.4,56.9-54.6,43.5-92
		c-13.4-37.4-54.6-56.9-92-43.5c-25.4,9.1-43.6,31.6-47.1,58.3L253,37.8c-2.9-2.4-7.1-2.4-10.1,0l-208,168c-3.4,2.8-4,7.8-1.2,11.3
		c1.5,1.9,3.8,3,6.2,3h32v184H8c-4.4,0-8,3.6-8,8s3.6,8,8,8h448c4.4,0,8-3.6,8-8S460.4,404,456,404z M360,20c30.9,0,56,25.1,56,56
		s-25.1,56-56,56s-56-25.1-56-56C304,45.1,329.1,20,360,20z M62.6,204L248,54.3l40.9,33c5.6,34.9,35.7,60.6,71.1,60.7
		c1.3,0,2.6,0,3.9-0.1l69.5,56.1H62.6z M208,404h-80V260h80V404z M408,404H224V252c0-4.4-3.6-8-8-8h-96c-4.4,0-8,3.6-8,8v152H88V220
		h320V404z"/>
	<path class="st0" d="M192,300c-4.4,0-8,3.6-8,8v16c0,4.4,3.6,8,8,8s8-3.6,8-8v-16C200,303.6,196.4,300,192,300z"/>
	<path class="st0" d="M384,324h-8v-72c0-4.4-3.6-8-8-8h-96c-4.4,0-8,3.6-8,8v72h-8c-4.4,0-8,3.6-8,8v24c0,4.4,3.6,8,8,8h128
		c4.4,0,8-3.6,8-8v-24C392,327.6,388.4,324,384,324z M328,260h32v64h-32V260z M280,260h32v64h-32V260z M376,348H264v-8h112V348z"/>
	<circle class="st0" cx="360" cy="100" r="8"/>
	<path class="st0" d="M381.3,76.2c-12.1-10.9-30.5-10.9-42.7,0c-3.3,2.9-3.6,8-0.7,11.3c2.9,3.3,8,3.6,11.3,0.7c0,0,0.1-0.1,0.1-0.1
		c6.1-5.4,15.3-5.4,21.3,0c3.3,3,8.3,2.7,11.3-0.5S384.7,79.2,381.3,76.2C381.4,76.2,381.4,76.2,381.3,76.2z"/>
	<path class="st0" d="M333.3,70.2c15.2-13.6,38.1-13.6,53.3,0c3.3,3,8.3,2.7,11.3-0.5c3-3.3,2.7-8.3-0.5-11.3c0,0-0.1-0.1-0.1-0.1
		c-21.3-19-53.4-19-74.7,0c-3.3,2.9-3.6,8-0.7,11.3C324.9,72.9,329.9,73.2,333.3,70.2C333.3,70.2,333.3,70.2,333.3,70.2z"/>
	<path class="st0" d="M288,148h-8v-40c0-4.4-3.6-8-8-8h-48c-4.4,0-8,3.6-8,8v40h-8c-4.4,0-8,3.6-8,8v24c0,4.4,3.6,8,8,8h80
		c4.4,0,8-3.6,8-8v-24C296,151.6,292.4,148,288,148z M256,116h8v32h-8V116z M232,116h8v32h-8V116z M280,172h-64v-8h64V172z"/>
	<path class="st0" d="M488,404h-8c-4.4,0-8,3.6-8,8s3.6,8,8,8h8c4.4,0,8-3.6,8-8S492.4,404,488,404z"/>
</g>
</svg>
