<?xml version="1.0" encoding="utf-8"?>
<!-- Generator: Adobe Illustrator 22.0.0, SVG Export Plug-In . SVG Version: 6.00 Build 0)  -->
<svg version="1.1" id="OBJECTS" xmlns="http://www.w3.org/2000/svg" xmlns:xlink="http://www.w3.org/1999/xlink" x="0px" y="0px"
	 viewBox="0 0 30.5 41" style="enable-background:new 0 0 30.5 41;" xml:space="preserve">
<style type="text/css">
	.st0{fill:#FFFFFF;}
</style>
<path class="st0" d="M21.4,18.4c-0.2,0-0.4-0.1-0.5-0.3c-5.9-7-11.9-0.3-12.1,0C8.5,18.5,8,18.4,7.7,18c-0.3-0.4-0.3-1.1,0.1-1.5
	c0.1-0.1,7.3-8.3,14.3,0c0.3,0.4,0.4,1,0.1,1.5C21.8,18.3,21.6,18.4,21.4,18.4z"/>
<path class="st0" d="M25.2,15.5c-0.2,0-0.4-0.1-0.5-0.3C15,3.8,5.3,14.8,4.9,15.3c-0.3,0.4-0.8,0.3-1.1-0.1
	c-0.3-0.4-0.3-1.1,0.1-1.5c0-0.1,11.1-12.7,21.9,0c0.3,0.4,0.4,1,0.1,1.5C25.7,15.4,25.4,15.5,25.2,15.5z"/>
<path class="st0" d="M28.7,12.6c-0.2,0-0.4-0.1-0.5-0.3C15-3.1,2,11.8,1.4,12.4c-0.3,0.4-0.8,0.3-1.1-0.1C0,11.9,0,11.2,0.4,10.8
	c0.1-0.2,14.7-16.7,28.8,0c0.3,0.4,0.4,1,0.1,1.5C29.1,12.5,28.9,12.6,28.7,12.6z"/>
<polygon class="st0" points="4.8,28.1 14.6,20 24.7,28.1 24.7,25.2 14.6,17.1 4.8,25.2 "/>
<polygon class="st0" points="22.3,27.1 14.6,20.9 7.3,27.1 7.3,38.7 12.3,38.7 12.3,30.9 17.2,30.9 17.2,38.7 22.3,38.7 "/>
</svg>
